0
SECTION
2
HEADER
9
$INSUNITS
70
4
9
$ACADVER
1
AC1014
9
$HANDSEED
5
FFFF
0
ENDSEC
0
SECTION
2
TABLES
0
TABLE
2
VPORT
5
8
100
AcDbSymbolTable
0
ENDTAB
0
TABLE
2
LTYPE
5
5
100
AcDbSymbolTable
0
LTYPE
5
14
100
AcDbSymbolTableRecord
100
AcDbLinetypeTableRecord
2
BYBLOCK
70
0
0
LTYPE
5
15
100
AcDbSymbolTableRecord
100
AcDbLinetypeTableRecord
2
BYLAYER
70
0
0
ENDTAB
0
TABLE
2
LAYER
5
2
100
AcDbSymbolTable
70
2
0
LAYER
5
50
100
AcDbSymbolTableRecord
100
AcDbLayerTableRecord
2
0
70
0
6
CONTINUOUS
0
ENDTAB
0
TABLE
2
STYLE
5
3
100
AcDbSymbolTable
70
1
0
STYLE
5
11
100
AcDbSymbolTableRecord
100
AcDbTextStyleTableRecord
2
STANDARD
70
0
0
ENDTAB
0
TABLE
2
VIEW
5
6
100
AcDbSymbolTable
70
0
0
ENDTAB
0
TABLE
2
UCS
5
7
100
AcDbSymbolTable
70
0
0
ENDTAB
0
TABLE
2
APPID
5
9
100
AcDbSymbolTable
70
2
0
APPID
5
12
100
AcDbSymbolTableRecord
100
AcDbRegAppTableRecord
2
ACAD
70
0
0
ENDTAB
0
TABLE
2
DIMSTYLE
5
A
100
AcDbSymbolTable
70
1
0
ENDTAB
0
TABLE
2
BLOCK_RECORD
5
1
100
AcDbSymbolTable
70
1
0
BLOCK_RECORD
5
1F
100
AcDbSymbolTableRecord
100
AcDbBlockTableRecord
2
*MODEL_SPACE
0
BLOCK_RECORD
5
1B
100
AcDbSymbolTableRecord
100
AcDbBlockTableRecord
2
*PAPER_SPACE
0
ENDTAB
0
ENDSEC
0
SECTION
2
BLOCKS
0
BLOCK
5
20
100
AcDbEntity
100
AcDbBlockBegin
2
*MODEL_SPACE
0
ENDBLK
5
21
100
AcDbEntity
100
AcDbBlockEnd
0
BLOCK
5
1C
100
AcDbEntity
100
AcDbBlockBegin
2
*PAPER_SPACE
0
ENDBLK
5
1D
100
AcDbEntity
100
AcDbBlockEnd
0
ENDSEC
0
SECTION
2
ENTITIES
0
LWPOLYLINE
5
100
100
AcDbEntity
8
0
100
AcDbPolyline
90
8
70
1
43
0.0
10
-280.48999999999967
20
28.189999999999856
42
0.41421356237315488
10
-280.98999999999967
20
27.689999999999884
10
-280.98999999999972
20
14.689999999999761
42
0.41421356237309509
10
-280.48999999999972
20
14.189999999999753
10
-267.4899999999999
20
14.189999999999861
42
0.41421356237304041
10
-266.99000000000001
20
14.689999999999873
10
-266.99000000000024
20
27.68999999999993
42
0.41421356237313145
10
-267.49000000000029
20
28.18999999999987
0
LWPOLYLINE
5
101
100
AcDbEntity
8
0
100
AcDbPolyline
90
8
70
1
43
0.0
10
-72.832576568677126
20
28.808459195672256
42
0.41421356237310264
10
-73.425606214470193
20
28.423341240740886
10
-76.128458195672309
20
15.707422431322849
42
0.41421356237310447
10
-75.74334024074092
20
15.114392785529759
10
-63.027421431322843
20
12.411540804327688
42
0.41421356237309093
10
-62.434391785529762
20
12.796658759259078
10
-59.731539804327703
20
25.512577568677145
42
0.41421356237309942
10
-60.116657759259098
20
26.105607214470208
0
LWPOLYLINE
5
102
100
AcDbEntity
8
0
100
AcDbPolyline
90
8
70
1
43
0.0
10
-123.38000056867715
20
20.079894195672296
42
0.41421356237309248
10
-123.97303021447024
20
19.694776240740907
10
-126.67588219567229
20
6.978857431322858
42
0.41421356237311241
10
-126.29076424074091
20
6.3858277855297807
10
-113.57484543132284
20
3.6829758043276888
42
0.41421356237308227
10
-112.98181578552973
20
4.0680937592590816
10
-110.2789638043277
20
16.784012568677152
42
0.41421356237308865
10
-110.66408175925909
20
17.377042214470237
0
LWPOLYLINE
5
103
100
AcDbEntity
8
0
100
AcDbPolyline
90
8
70
1
43
0.0
10
-265.12000000000006
20
66.289999999999964
42
0.41421356237312101
10
-265.62000000000018
20
65.789999999999921
10
-265.62000000000012
20
52.789999999999885
42
0.4142135623730534
10
-265.12000000000012
20
52.289999999999878
10
-252.12000000000032
20
52.289999999999957
42
0.41421356237311585
10
-251.62000000000023
20
52.789999999999978
10
-251.62000000000009
20
65.789999999999964
42
0.41421356237308465
10
-252.12000000000015
20
66.289999999999978
0
SPLINE
5
104
100
AcDbEntity
8
0
100
AcDbSpline
70
6
71
3
72
14
73
10
74
0
42
0.000000001
43
0.0000000001
44
0.0000000001
40
0
40
0
40
0
40
0
40
1
40
1
40
2
40
2
40
3
40
3
40
4
40
4
40
4
40
4
41
1
41
1
41
1
41
1
41
1
41
1
41
1
41
1
41
1
41
1
10
-301.028749999696
20
91.11999899961711
30
0
10
-301.02874999973807
20
90.153500687414038
30
0
10
-301.81225168757004
20
89.36999899965322
30
0
10
-303.74524831197704
20
89.369998999740531
30
0
10
-304.52874999973807
20
90.153500687570642
30
0
10
-304.528749999654
20
92.08649731197815
30
0
10
-303.745248311821
20
92.869998999740361
30
0
10
-301.81225168741497
20
92.869998999652438
30
0
10
-301.028749999654
20
92.086497311822257
30
0
10
-301.028749999696
20
91.11999899961711
30
0
0
LWPOLYLINE
5
105
100
AcDbEntity
8
0
100
AcDbPolyline
90
8
70
1
43
0.0
10
-92.166288568677217
20
52.39917619567241
42
0.4142135623731481
10
-92.759318214470383
20
52.014058240741051
10
-95.462170195672442
20
39.298139431322973
42
0.41421356237308427
10
-95.077052240741082
20
38.705109785529899
10
-82.361133431323012
20
36.002257804327776
42
0.41421356237311818
10
-81.76810378552986
20
36.387375759259129
10
-79.065251804327787
20
49.1032945686772
42
0.41421356237310414
10
-79.450369759259189
20
49.69632421447028
0
LWPOLYLINE
5
106
100
AcDbEntity
8
0
100
AcDbPolyline
90
8
70
1
43
0.0
10
-97.516288568677169
20
73.009176195672339
42
0.41421356237306634
10
-98.109318214470278
20
72.624058240740951
10
-100.81217019567232
20
59.908139431322873
42
0.41421356237308887
10
-100.42705224074096
20
59.315109785529792
10
-87.711133431322821
20
56.612257804327719
42
0.41421356237304485
10
-87.118103785529769
20
56.997375759259121
10
-84.415251804327696
20
69.713294568677156
42
0.41421356237313101
10
-84.800369759259127
20
70.30632421447028
0
LWPOLYLINE
5
107
100
AcDbEntity
8
0
100
AcDbPolyline
90
8
70
1
43
0.0
10
-2.339999999999979
20
26.049998999999978
42
0.41421356237309509
10
-2.8399999999999768
20
25.549998999999982
10
-2.8399999999999981
20
12.549998999999993
42
0.4142135623730937
10
-2.3399999999999999
20
12.049998999999993
10
10.659999999999993
20
12.049998999999987
42
0.4142135623730977
10
11.159999999999997
20
12.549998999999993
10
11.159999999999988
20
25.549998999999985
42
0.41421356237309109
10
10.659999999999989
20
26.049998999999989
0
LWPOLYLINE
5
108
100
AcDbEntity
8
0
100
AcDbPolyline
90
8
70
1
43
0.0
10
-78.882576568677166
20
69.04845919567228
42
0.41421356237310014
10
-79.475606214470218
20
68.663341240740905
10
-82.178458195672363
20
55.947422431322835
42
0.41421356237311135
10
-81.793340240740974
20
55.354392785529754
10
-69.077421431322932
20
52.651540804327716
42
0.41421356237313067
10
-68.484391785529795
20
53.036658759259097
10
-65.781539804327707
20
65.75257756867714
42
0.41421356237311646
10
-66.166657759259124
20
66.345607214470235
0
LWPOLYLINE
5
109
100
AcDbEntity
8
0
100
AcDbPolyline
90
8
70
1
43
0.0
10
-108.04217019567231
20
3.0181394313228238
42
0.41421356237312501
10
-107.65705224074094
20
2.4251097855297568
10
-94.941133431322868
20
-0.27774219567233799
42
0.41421356237312507
10
-94.348103785529801
20
0.10737575925904963
10
-91.645251804327742
20
12.823294568677127
42
0.4142135623730609
10
-92.030369759259088
20
13.41632421447021
10
-104.74628856867713
20
16.119176195672274
42
0.41421356237312595
10
-105.33931821447024
20
15.734058240740891
0
LWPOLYLINE
5
110
100
AcDbEntity
8
0
100
AcDbPolyline
90
8
70
1
43
0.0
10
-48.569998999999989
20
9.13999899999998
42
0.41421356237309437
10
-49.069998999999989
20
8.6399989999999818
10
-49.06999900000001
20
-4.3600010000000244
42
0.4142135623730947
10
-48.56999900000001
20
-4.8600010000000227
10
-35.569999000000017
20
-4.8600010000000058
42
0.41421356237309109
10
-35.069999000000024
20
-4.3600010000000067
10
-35.069999000000031
20
8.639998999999996
42
0.41421356237309309
10
-35.569999000000024
20
9.1399989999999942
0
LWPOLYLINE
5
111
100
AcDbEntity
8
0
100
AcDbPolyline
90
8
70
1
43
0.0
10
-128.73371256867713
20
40.690612195672273
42
0.4142135623731012
10
-129.32674221447019
20
40.305494240740913
10
-132.02959419567233
20
27.58957543132286
42
0.41421356237311335
10
-131.64447624074094
20
26.996545785529783
10
-118.92855743132289
20
24.293693804327678
42
0.41421356237309648
10
-118.33552778552982
20
24.678811759259069
10
-115.63267580432777
20
37.394730568677133
42
0.41421356237312573
10
-116.01779375925915
20
37.987760214470214
0
LWPOLYLINE
5
112
100
AcDbEntity
8
0
100
AcDbPolyline
90
8
70
1
43
0.0
10
-30.119998999999989
20
28.189998999999975
42
0.41421356237309509
10
-30.619998999999986
20
27.689998999999975
10
-30.619999000000007
20
14.68999899999999
42
0.41421356237309637
10
-30.119999000000011
20
14.18999899999999
10
-17.119999000000018
20
14.189998999999991
42
0.41421356237309243
10
-16.619999000000014
20
14.689998999999991
10
-16.619999000000025
20
27.68999899999999
42
0.41421356237309243
10
-17.119999000000021
20
28.189998999999982
0
LWPOLYLINE
5
113
100
AcDbEntity
8
0
100
AcDbPolyline
90
8
70
1
43
0.0
10
-54.626248999999973
20
47.239998999999983
42
0.4142135623731002
10
-55.126248999999959
20
46.739998999999983
10
-55.126248999999987
20
33.739998999999983
42
0.41421356237310802
10
-54.62624899999998
20
33.239998999999983
10
-41.626249000000001
20
33.239998999999983
42
0.41421356237308982
10
-41.126249000000008
20
33.739998999999997
10
-41.12624900000003
20
46.739998999999997
42
0.41421356237310542
10
-41.62624900000003
20
47.23999899999999
0
LWPOLYLINE
5
114
100
AcDbEntity
8
0
100
AcDbPolyline
90
8
70
1
43
0.0
10
-91.466288568677129
20
32.769176195672244
42
0.41421356237308177
10
-92.059318214470167
20
32.384058240740885
10
-94.762170195672283
20
19.668139431322867
42
0.41421356237312673
10
-94.377052240740909
20
19.07510978552979
10
-81.661133431322824
20
16.372257804327699
42
0.41421356237309337
10
-81.068103785529757
20
16.757375759259091
10
-78.365251804327713
20
29.473294568677137
42
0.4142135623730856
10
-78.750369759259101
20
30.066324214470189
0
LWPOLYLINE
5
115
100
AcDbEntity
8
0
100
AcDbPolyline
90
8
70
1
43
0.0
10
-6.4999999999999778
20
6.9999999999999822
42
0.4142135623730937
10
-6.9999999999999787
20
6.499999999999984
10
-6.9999999999999964
20
-6.5000000000000053
42
0.41421356237309048
10
-6.5000000000000027
20
-7.0000000000000062
10
6.4999999999999911
20
-7.0000000000000071
42
0.4142135623730957
10
6.9999999999999929
20
-6.500000000000008
10
6.9999999999999796
20
6.4999999999999929
42
0.41421356237309048
10
6.4999999999999849
20
6.9999999999999929
0
LWPOLYLINE
5
116
100
AcDbEntity
8
0
100
AcDbPolyline
90
8
70
1
43
0.0
10
-223.6233412402473
20
28.085606215172195
42
0.41421356237309592
10
-224.00845919523192
20
27.492576569413746
10
-221.30560721517247
20
14.776657759752748
42
0.41421356237313334
10
-220.71257756941395
20
14.391539804768092
10
-207.99665875975296
20
17.094391784827849
42
0.4142135623731189
10
-207.61154080476825
20
17.687421430586252
10
-210.31439278482779
20
30.403340240247164
42
0.41421356237310558
10
-210.90742243058625
20
30.788458195231815
0
LWPOLYLINE
5
117
100
AcDbEntity
8
0
100
AcDbPolyline
90
8
70
1
43
0.0
10
-110.10000056867713
20
36.729894195672287
42
0.41421356237306123
10
-110.69303021447024
20
36.344776240740885
10
-113.3958821956723
20
23.628857431322821
42
0.41421356237311135
10
-113.01076424074091
20
23.035827785529747
10
-100.29484543132293
20
20.332975804327688
42
0.41421356237315166
10
-99.70181578552976
20
20.718093759259041
10
-96.998963804327772
20
33.434012568677126
42
0.41421356237313262
10
-97.384081759259146
20
34.027042214470242
0
LWPOLYLINE
5
118
100
AcDbEntity
8
0
100
AcDbPolyline
90
8
70
1
43
0.0
10
-28.432498999999996
20
47.239998999999983
42
0.41421356237310281
10
-28.932499000000007
20
46.739998999999983
10
-28.932499000000014
20
33.739998999999983
42
0.41421356237309509
10
-28.432499000000018
20
33.239998999999983
10
-10.669999000000024
20
33.239998999999997
42
0.41421356237309637
10
-10.169999000000018
20
33.739998999999997
10
-10.169999000000027
20
46.739998999999997
42
0.41421356237309637
10
-10.669999000000026
20
47.23999899999999
0
LWPOLYLINE
5
119
100
AcDbEntity
8
0
100
AcDbPolyline
90
8
70
1
43
0.0
10
-53.932498999999993
20
28.189998999999979
42
0.4142135623730977
10
-54.432498999999979
20
27.689998999999979
10
-54.432499000000007
20
14.689998999999991
42
0.4142135623730977
10
-53.932499000000007
20
14.189998999999993
10
-40.932499000000021
20
14.189998999999991
42
0.41421356237310802
10
-40.432499000000007
20
14.689998999999986
10
-40.432499000000028
20
27.68999899999999
42
0.41421356237310802
10
-40.932499000000035
20
28.189998999999993
0
LWPOLYLINE
5
120
100
AcDbEntity
8
0
100
AcDbPolyline
90
8
70
1
43
0.0
10
-73.532576568677186
20
48.438459195672351
42
0.41421356237308488
10
-74.125606214470281
20
48.053341240740949
10
-76.828458195672354
20
35.337422431322885
42
0.41421356237308998
10
-76.443340240740966
20
34.744392785529797
10
-63.727421431322931
20
32.041540804327738
42
0.41421356237307783
10
-63.134391785529836
20
32.426658759259112
10
-60.431539804327741
20
45.142577568677154
42
0.41421356237310625
10
-60.816657759259158
20
45.735607214470264
0
LWPOLYLINE
5
121
100
AcDbEntity
8
0
100
AcDbPolyline
90
8
70
1
43
0.0
10
-14.164939639849159
20
53.29374540427623
10
-14.164939639849166
20
68.293760574612421
42
-0.41193380634350224
10
-13.668834521882079
20
68.793745404276251
10
-7.6649396398491731
20
68.793745404276308
42
-0.4142135623730937
10
-7.1649396398491252
20
68.293745404276279
10
-7.1649396398491589
20
53.293745404276216
42
-0.41421356237309509
10
-7.6649396398491572
20
52.793745404276216
10
-13.664939639849152
20
52.79374540427618
42
-0.414213562373134
0
LWPOLYLINE
5
122
100
AcDbEntity
8
0
100
AcDbPolyline
90
8
70
1
43
0.0
10
-67.209998999999968
20
6.9999999999999716
42
0.41421356237310869
10
-67.709998999999982
20
6.4999999999999725
10
-67.709998999999996
20
-6.5000000000000213
42
0.41421356237309437
10
-67.209998999999996
20
-7.000000000000024
10
-54.20999900000001
20
-7.0000000000000204
42
0.4142135623730977
10
-53.709999000000003
20
-6.5000000000000169
10
-53.709999000000018
20
6.499999999999984
42
0.41421356237310353
10
-54.209999000000025
20
6.9999999999999796
0
LWPOLYLINE
5
123
100
AcDbEntity
8
0
100
AcDbPolyline
90
8
70
1
43
0.0
10
-21.886248999999957
20
85.339998999999992
42
0.41421356237305862
10
-22.386248999999957
20
84.839999000000006
10
-22.386248999999964
20
71.83999900000002
42
0.41421356237309509
10
-21.886248999999971
20
71.33999900000002
10
-8.8862490000000065
20
71.339999000000006
42
0.41421356237309698
10
-8.3862490000000101
20
71.839999000000006
10
-8.3862490000000438
20
84.839999000000006
42
0.41421356237309698
10
-8.8862490000000527
20
85.339999000000006
0
SPLINE
5
124
100
AcDbEntity
8
0
100
AcDbSpline
70
4
71
3
72
8
73
4
74
0
42
0.000000001
43
0.0000000001
44
0.0000000001
40
7
40
7
40
7
40
7
40
7.9969464242375796
40
7.9969464242375796
40
7.9969464242375796
40
7.9969464242375796
41
1
41
1
41
1
41
1
10
-267.14182723025499
20
85.90613001460305
30
0
10
-266.81348180048803
20
86.225889005307025
30
0
10
-266.42658446783105
20
86.386085500416542
30
0
10
-265.97260115184304
20
86.387060863149244
30
0
0
SPLINE
5
125
100
AcDbEntity
8
0
100
AcDbSpline
70
4
71
3
72
26
73
22
74
0
42
0.000000001
43
0.0000000001
44
0.0000000001
40
0.0030535757269562901
40
0.0030535757269562901
40
0.0030535757269562901
40
0.0030535757269562901
40
1
40
1
40
1
40
1.9937004358558361
40
1.9937004358558361
40
1.9937004358558361
40
3
40
3
40
3
40
3.9937004358555557
40
3.9937004358555557
40
3.9937004358555557
40
5
40
5
40
5
40
6.0062965761297313
40
6.0062965761297313
40
6.0062965761297313
40
7
40
7
40
7
40
7
41
1
41
1
41
1
41
1
41
1
41
1
41
1
41
1
41
1
41
1
41
1
41
1
41
1
41
1
41
1
41
1
41
1
41
1
41
1
41
1
41
1
41
1
10
-265.97260115184304
20
86.387060863149244
30
0
10
-265.52715199634002
20
86.386085500427953
30
0
10
-265.14028088300904
20
86.225889005318393
30
0
10
-264.8205218922937
20
85.906130014603065
30
0
10
-264.50180401467628
20
85.58741213698562
30
0
10
-264.33958656255305
20
85.202763358696686
30
0
10
-264.33958656255305
20
84.749955969753259
30
0
10
-264.33958656255305
20
84.273743778779647
30
0
10
-264.49776299055776
20
83.899315349213225
30
0
10
-264.82052189229353
20
83.576556447477159
30
0
10
-265.13923976991066
20
83.2578385698598
30
0
10
-265.52388854819986
20
83.095621117736329
30
0
10
-265.97669593714301
20
83.095621117736314
30
0
10
-266.45290812811754
20
83.095621117736357
30
0
10
-266.82733655768368
20
83.253797545741079
30
0
10
-267.1500954594195
20
83.576556447477145
30
0
10
-267.47285340278438
20
83.899314390842235
30
0
10
-267.63103078916004
20
84.290974229663519
30
0
10
-267.63103078916004
20
84.749955969753216
30
0
10
-267.63103078916004
20
85.186382355501195
30
0
10
-267.46876223387335
20
85.587411178614659
30
0
10
-267.14182723025499
20
85.90613001460305
30
0
0
LWPOLYLINE
5
126
100
AcDbEntity
8
0
100
AcDbPolyline
90
8
70
1
43
0.0
10
-251.42999900000001
20
47.239999999999931
42
0.41421356237311585
10
-251.92999899999995
20
46.739999999999995
10
-251.92999900000001
20
33.739999999999938
42
0.41421356237301699
10
-251.42999900000007
20
33.239999999999931
10
-238.42999900000018
20
33.24000000000003
42
0.41421356237311846
10
-237.92999900000015
20
33.739999999999981
10
-237.92999900000009
20
46.740000000000002
42
0.41421356237307422
10
-238.42999900000012
20
47.239999999999938
0
LWPOLYLINE
5
127
100
AcDbEntity
8
0
100
AcDbPolyline
90
8
70
1
43
0.0
10
-74.07257656867715
20
89.038459195672388
42
0.41421356237309509
10
-74.665606214470216
20
88.653341240741028
10
-77.368458195672332
20
75.937422431323
42
0.41421356237314405
10
-76.983340240740873
20
75.344392785529905
10
-64.267421431322887
20
72.641540804327846
42
0.41421356237314549
10
-63.674391785529743
20
73.026658759259149
10
-60.971539804327648
20
85.742577568677163
42
0.41421356237313933
10
-61.356657759259072
20
86.335607214470329
0
LWPOLYLINE
5
128
100
AcDbEntity
8
0
100
AcDbPolyline
90
4
70
1
43
0.0
10
-273.705767658301
20
86.167957271482138
10
-271.04718747233397
20
86.167957271482138
10
-271.04718747233403
20
77.524901718087321
10
-273.70576765830106
20
77.524901718087335
0
LWPOLYLINE
5
129
100
AcDbEntity
8
0
100
AcDbPolyline
90
8
70
1
43
0.0
10
-110.80000056867725
20
56.359894195672396
42
0.41421356237307466
10
-111.39303021447033
20
55.974776240741022
10
-114.09588219567243
20
43.258857431322973
42
0.41421356237311646
10
-113.71076424074103
20
42.665827785529885
10
-100.99484543132289
20
39.962975804327797
42
0.41421356237312668
10
-100.40181578552981
20
40.348093759259179
10
-97.698963804327704
20
53.064012568677235
42
0.41421356237316148
10
-98.084081759259135
20
53.657042214470337
0
LWPOLYLINE
5
130
100
AcDbEntity
8
0
100
AcDbPolyline
90
8
70
1
43
0.0
10
-59.986248999999987
20
66.289998999999995
42
0.41421356237311063
10
-60.486248999999994
20
65.789998999999995
10
-60.486249000000029
20
52.789998999999995
42
0.41421356237309509
10
-59.986249000000022
20
52.289998999999995
10
-46.986249000000015
20
52.289998999999995
42
0.41421356237309509
10
-46.486249000000015
20
52.789998999999995
10
-46.486249000000015
20
65.789999000000009
42
0.41421356237309509
10
-46.986249000000015
20
66.289998999999995
0
LWPOLYLINE
5
131
100
AcDbEntity
8
0
100
AcDbPolyline
90
8
70
1
43
0.0
10
-86.112576568677156
20
12.158459195672268
42
0.41421356237306339
10
-86.705606214470208
20
11.773341240740887
10
-89.40845819567231
20
-0.94257756867717812
42
0.41421356237308832
10
-89.023340240740922
20
-1.5356072144702582
10
-76.307421431322936
20
-4.2384591956723225
42
0.41421356237313028
10
-75.71439178552977
20
-3.8533412407409493
10
-73.011539804327697
20
8.8625775686771195
42
0.41421356237310991
10
-73.396657759259099
20
9.4556072144702021
0
LWPOLYLINE
5
132
100
AcDbEntity
8
0
100
AcDbPolyline
90
8
70
1
43
0.0
10
-142.01371256867714
20
24.040612195672296
42
0.41421356237308177
10
-142.60674221447022
20
23.6554942407409
10
-145.30959419567233
20
10.939575431322847
42
0.41421356237311213
10
-144.92447624074094
20
10.346545785529774
10
-132.20855743132279
20
7.6436938043276914
42
0.41421356237306778
10
-131.61552778552976
20
8.0288117592590567
10
-128.91267580432765
20
20.744730568677173
42
0.41421356237309592
10
-129.29779375925901
20
21.337760214470226
0
LWPOLYLINE
5
133
100
AcDbEntity
8
0
100
AcDbPolyline
90
8
70
1
43
0.0
10
-242.80999899999989
20
27.129998999999959
42
0.41421356237317564
10
-243.30999900000006
20
26.629998999999959
10
-243.30999900000009
20
13.629998999999911
42
0.41421356237313273
10
-242.80999900000009
20
13.129998999999803
10
-229.80999900000012
20
13.129998999999799
42
0.41421356237316659
10
-229.30999900000012
20
13.629998999999744
10
-229.30999900000023
20
26.629998999999842
42
0.41421356237307422
10
-229.80999900000018
20
27.129998999999799
0
LINE
5
134
100
AcDbEntity
8
0
100
AcDbLine
10
-317.50874999999996
20
66.28999899999971
30
0
11
-309.7450329806955
21
66.289998999999881
31
0
0
LINE
5
135
100
AcDbEntity
8
0
100
AcDbLine
10
-309.7450329806955
20
66.289998999999881
30
0
11
-309.7450329806955
21
68.287981583431232
31
0
0
ARC
5
136
100
AcDbEntity
8
0
100
AcDbCircle
10
-309.2450329806955
20
68.28798158343092
30
-1.5201349288649363e-48
40
0.50000000000002487
210
3.8518598887746855e-34
220
-9.629649721930497e-35
230
1
100
AcDbArc
50
90.000000000006523
51
180
0
LINE
5
137
100
AcDbEntity
8
0
100
AcDbLine
10
-309.24503298069556
20
68.787981583430948
30
4.8148248609680725e-35
11
-303.2448187865615
21
68.787981583431318
31
0
0
ARC
5
138
100
AcDbEntity
8
0
100
AcDbCircle
10
-303.24503298069556
20
68.28798162931038
30
0
40
0.50000000000004263
210
-1.0280973815180358e-47
220
9.6461228839700068e-35
230
1
100
AcDbArc
50
0
51
89.975455159493123
0
LINE
5
139
100
AcDbEntity
8
0
100
AcDbLine
10
-302.7450329806955
20
68.287981629310423
30
0
11
-302.74503298069533
21
53.287981583431176
31
0
0
ARC
5
140
100
AcDbEntity
8
0
100
AcDbCircle
10
-303.24503298069533
20
53.287981583431275
30
-1.7239332380094662e-47
40
0.50000000000001599
210
3.1557368221911173e-48
220
-9.6296497219447043e-35
230
1
100
AcDbArc
50
270
51
360
0
LINE
5
141
100
AcDbEntity
8
0
100
AcDbLine
10
-303.24503298069533
20
52.787981583431261
30
-4.8148248609742295e-35
11
-304.00875406998608
21
52.787981583431254
31
0
0
ARC
5
142
100
AcDbEntity
8
0
100
AcDbCircle
10
-304.50874999999991
20
52.78999900000003
30
3.073679416606025e-48
40
0.49999999999998046
210
3.8892736609570933e-37
220
1.5541611920526626e-36
230
1
100
AcDbArc
50
270
51
359.76882046291377
0
LINE
5
143
100
AcDbEntity
8
0
100
AcDbLine
10
-304.50874999999991
20
52.289999000000051
30
7.7708059602937458e-37
11
-317.50875000000008
21
52.289999000000094
31
0
0
ARC
5
144
100
AcDbEntity
8
0
100
AcDbCircle
10
-317.50875000000013
20
52.78999900000008
30
4.1026938299915203e-48
40
0.49999999999997158
210
-3.073679416604011e-48
220
9.6296497219402868e-35
230
1
100
AcDbArc
50
180
51
270.00000000000648
0
LINE
5
145
100
AcDbEntity
8
0
100
AcDbLine
10
-318.00875000000013
20
52.789999000000101
30
0
11
-318.00874999999991
21
65.789998999999597
31
0
0
ARC
5
146
100
AcDbEntity
8
0
100
AcDbCircle
10
-317.50874999999991
20
65.789998999999654
30
0
40
0.50000000000005151
210
-6.842277657835542e-48
220
-4.8617306858281761e-61
230
1
100
AcDbArc
50
90.000000000006523
51
180
0
LWPOLYLINE
5
147
100
AcDbEntity
8
0
100
AcDbPolyline
90
8
70
1
43
0.0
10
-301.9362499999998
20
33.74000000000003
42
0.41421356237311319
10
-301.43624999999992
20
33.240000000000094
10
-288.43624999999986
20
33.240000000000144
42
0.41421356237308204
10
-287.93624999999997
20
33.740000000000066
10
-287.93625000000009
20
46.74000000000008
42
0.41421356237308465
10
-288.43625000000009
20
47.24000000000008
10
-301.4362499999998
20
47.239999999999881
42
0.41421356237308465
10
-301.93624999999986
20
46.739999999999846
0
SPLINE
5
148
100
AcDbEntity
8
0
100
AcDbSpline
70
6
71
3
72
14
73
10
74
0
42
0.000000001
43
0.0000000001
44
0.0000000001
40
0
40
0
40
0
40
0
40
1
40
1
40
2
40
2
40
3
40
3
40
4
40
4
40
4
40
4
41
1
41
1
41
1
41
1
41
1
41
1
41
1
41
1
41
1
41
1
10
-101.38651757949592
20
101.12531798179107
30
0
10
-101.38651757953991
20
100.15881966958803
30
0
10
-102.17001926737039
20
99.375317981827166
30
0
10
-104.10301589177779
20
99.375317981914492
30
0
10
-104.88651757953889
20
100.15881966974524
30
0
10
-104.88651757945242
20
102.09181629415264
30
0
10
-104.10301589162123
20
102.87531798191425
30
0
10
-102.17001926721221
20
102.87531798182629
30
0
10
-101.38651757945232
20
102.09181629399608
30
0
10
-101.38651757949592
20
101.12531798179107
30
0
0
SPLINE
5
149
100
AcDbEntity
8
0
100
AcDbSpline
70
6
71
3
72
14
73
10
74
0
42
0.000000001
43
0.0000000001
44
0.0000000001
40
0
40
0
40
0
40
0
40
1
40
1
40
2
40
2
40
3
40
3
40
4
40
4
40
4
40
4
41
1
41
1
41
1
41
1
41
1
41
1
41
1
41
1
41
1
41
1
10
1.7499999956399948
20
-12.780001013976513
30
0
10
1.74999999559599
20
-13.746499326179515
30
0
10
0.96649830776498913
20
-14.530001013942524
30
0
10
-0.96649831664200603
20
-14.53000101385452
30
0
10
-1.7500000044040043
20
-13.746499326023521
30
0
10
-1.7500000043160069
20
-11.813502701614521
30
0
10
-0.96649831648500384
20
-11.030001013854505
30
0
10
0.9664983079219891
20
-11.03000101394052
30
0
10
1.7499999956829959
20
-11.813502701772514
30
0
10
1.7499999956399948
20
-12.780001013976513
30
0
0
SPLINE
5
150
100
AcDbEntity
8
0
100
AcDbSpline
70
6
71
3
72
14
73
10
74
0
42
0.000000001
43
0.0000000001
44
0.0000000001
40
0
40
0
40
0
40
0
40
1
40
1
40
2
40
2
40
3
40
3
40
4
40
4
40
4
40
4
41
1
41
1
41
1
41
1
41
1
41
1
41
1
41
1
41
1
41
1
10
-108.25774862314901
20
-3.2418603271445146
30
0
10
-108.25774862319233
20
-4.2083586393474937
30
0
10
-109.04125031102441
20
-4.991860327109503
30
0
10
-110.97424693543184
20
-4.9918603270224926
30
0
10
-111.75774862319301
20
-4.2083586391915055
30
0
10
-111.75774862310611
20
-2.2753620147845077
30
0
10
-110.9742469352756
20
-1.4918603270224962
30
0
10
-109.04125031086623
20
-1.4918603271104991
30
0
10
-108.25774862310668
20
-2.2753620149404852
30
0
10
-108.25774862314901
20
-3.2418603271445146
30
0
0
SPLINE
5
151
100
AcDbEntity
8
0
100
AcDbSpline
70
6
71
3
72
14
73
10
74
0
42
0.000000001
43
0.0000000001
44
0.0000000001
40
0
40
0
40
0
40
0
40
1
40
1
40
2
40
2
40
3
40
3
40
4
40
4
40
4
40
4
41
1
41
1
41
1
41
1
41
1
41
1
41
1
41
1
41
1
41
1
10
1.7500000003050054
20
91.119998986024001
30
0
10
1.7500000002609983
20
90.153500673820389
30
0
10
0.96649831243000195
20
89.369998986059386
30
0
10
-0.96649831197798131
20
89.369998986146015
30
0
10
-1.7499999997380034
20
90.153500673976993
30
0
10
-1.7499999996529869
20
92.086497298384288
30
0
10
-0.96649831181999657
20
92.869998986146399
30
0
10
0.96649831258699415
20
92.869998986059187
30
0
10
1.7500000003470118
20
92.086497298227798
30
0
10
1.7500000003050054
20
91.119998986024001
30
0
0
LWPOLYLINE
5
152
100
AcDbEntity
8
0
100
AcDbPolyline
90
20
70
1
43
0.0
10
-305.39999899999987
20
-4.3599999999998449
42
0.41421356237308427
10
-304.89999899999981
20
-4.8599999999998689
10
-272.84999900000008
20
-4.8600000000000598
42
0.41421356237315193
10
-272.34999900000003
20
-4.3599999999999692
10
-272.34999900000003
20
8.6400000000000059
42
0.41421356237316465
10
-272.84999900000008
20
9.1400000000000468
10
-273.46910673993739
20
9.1400000000000468
10
-273.46910673993744
20
11.139915816099116
42
0.41421356237294804
10
-273.96910673993739
20
11.63991581609887
10
-279.96916990319568
20
11.639915816098876
42
0.41417656267706454
10
-280.4691067399375
20
11.139915820088465
10
-280.4691067399375
20
9.1400000000000361
10
-297.28089126006284
20
9.140000000000029
10
-297.28089126006284
20
11.139915820088415
42
0.41417656267689679
10
-297.7808280968045
20
11.639915816098817
10
-303.78089126006273
20
11.639915816098778
42
0.41421356237342144
10
-304.28089126006319
20
11.139915816098775
10
-304.28089126006307
20
9.1400000000000414
10
-304.89999899999998
20
9.1400000000000432
42
0.41421356237293888
10
-305.3999989999997
20
8.6400000000000787
0
LINE
5
153
100
AcDbEntity
8
0
100
AcDbLine
10
-255.19354706831109
20
74.528357665016941
30
0
11
-255.19354706831103
21
77.963806882908159
31
0
0
SPLINE
5
154
100
AcDbEntity
8
0
100
AcDbSpline
70
4
71
3
72
8
73
4
74
0
42
0.000000001
43
0.0000000001
44
0.0000000001
40
15
40
15
40
15
40
15
40
16
40
16
40
16
40
16
41
1
41
1
41
1
41
1
10
-255.19354706831103
20
77.963806882908159
30
0
10
-255.82641110895202
20
77.533169947251949
30
0
10
-256.56056095685898
20
77.322330103554634
30
0
10
-257.39634112158001
20
77.322330103554648
30
0
0
LINE
5
155
100
AcDbEntity
8
0
100
AcDbLine
10
-257.39634112158006
20
77.322330103554648
30
0
11
-257.42183482817103
21
77.330598332719148
31
0
0
SPLINE
5
156
100
AcDbEntity
8
0
100
AcDbSpline
70
4
71
3
72
10
73
6
74
0
42
0.000000001
43
0.0000000001
44
0.0000000001
40
0
40
0
40
0
40
0
40
1
40
1
40
2
40
2
40
2
40
2
41
1
41
1
41
1
41
1
41
1
41
1
10
-257.42183482817103
20
77.330598332719148
30
0
10
-258.52736596938797
20
77.330598332719148
30
0
10
-259.41378903774205
20
77.676485919438306
30
0
10
-260.74704099053406
20
79.044188827082436
30
0
10
-261.08466034808896
20
79.947148353766437
30
0
10
-261.08466034808896
20
81.069904972409319
30
0
0
LINE
5
157
100
AcDbEntity
8
0
100
AcDbLine
10
-261.08466034808896
20
81.069904972409319
30
0
11
-261.08466034808907
21
86.184493729811336
31
0
0
LINE
5
158
100
AcDbEntity
8
0
100
AcDbLine
10
-261.08466034808907
20
86.184493729811336
30
0
11
-258.41746742340803
21
86.184493729811322
31
0
0
LINE
5
159
100
AcDbEntity
8
0
100
AcDbLine
10
-258.41746742340803
20
86.184493729811322
30
0
11
-258.41746742340803
21
81.255251109515839
31
0
0
SPLINE
5
160
100
AcDbEntity
8
0
100
AcDbSpline
70
4
71
3
72
8
73
4
74
0
42
0.000000001
43
0.0000000001
44
0.0000000001
40
5
40
5
40
5
40
5
40
6
40
6
40
6
40
6
41
1
41
1
41
1
41
1
10
-258.41746742340803
20
81.255251109515839
30
0
10
-258.41746742340803
20
80.757434811897198
30
0
10
-258.274151451222
20
80.360904321544922
30
0
10
-257.99578773601411
20
80.05704689974587
30
0
0
SPLINE
5
161
100
AcDbEntity
8
0
100
AcDbSpline
70
4
71
3
72
14
73
10
74
0
42
0.000000001
43
0.0000000001
44
0.0000000001
40
6
40
6
40
6
40
6
40
7.0001153003437935
40
7.0001153003437935
40
7.0001153003437935
40
8
40
8
40
8
40
9
40
9
40
9
40
9
41
1
41
1
41
1
41
1
41
1
41
1
41
1
41
1
41
1
41
1
10
-257.99578773601411
20
80.05704689974587
30
0
10
-257.71704737610287
20
79.753154443081741
30
0
10
-257.3287025327142
20
79.60091625749881
30
0
10
-256.83065644290201
20
79.600916257498838
30
0
10
-256.33306954041785
20
79.60091625749881
30
0
10
-255.93627557339545
20
79.753224512812139
30
0
10
-255.64072046229654
20
80.057046899745927
30
0
10
-255.34513126966203
20
80.360904321544936
30
0
10
-255.19354706831109
20
80.757434811897255
30
0
10
-255.19354706831103
20
81.246982880351212
30
0
0
LINE
5
162
100
AcDbEntity
8
0
100
AcDbLine
10
-255.19354706831103
20
81.246982880351197
30
0
11
-255.19354706831103
21
86.176225500646609
31
0
0
LINE
5
163
100
AcDbEntity
8
0
100
AcDbLine
10
-255.19354706831103
20
86.176225500646609
30
0
11
-252.55150334067304
21
86.176225500646652
31
0
0
LINE
5
164
100
AcDbEntity
8
0
100
AcDbLine
10
-252.55150334067304
20
86.176225500646652
30
0
11
-252.55150334067304
21
74.714048311671917
31
0
0
LINE
5
165
100
AcDbEntity
8
0
100
AcDbLine
10
-252.55150334067304
20
74.714048311671917
30
0
11
-255.00751191210796
21
74.401578151159825
31
0
0
LINE
5
166
100
AcDbEntity
8
0
100
AcDbLine
10
-255.00751191210796
20
74.401578151159825
30
0
11
-255.19354706831109
21
74.528357665016941
31
0
0
LWPOLYLINE
5
167
100
AcDbEntity
8
0
100
AcDbPolyline
90
8
70
1
43
0.0
10
-170.98220524024714
20
78.227760215172196
42
0.4142135623730358
10
-171.36732319523179
20
77.634730569413691
10
-168.66447121517223
20
64.918811759752799
42
0.41421356237308382
10
-168.07144156941376
20
64.53369380476812
10
-155.35552275975289
20
67.236545784827655
42
0.41421356237311541
10
-154.97040480476815
20
67.829575430586118
10
-157.67325678482771
20
80.545494240247081
42
0.41421356237311541
10
-158.26628643058615
20
80.930612195231717
0
LWPOLYLINE
5
168
100
AcDbEntity
8
0
100
AcDbPolyline
90
8
70
1
43
0.0
10
-226.6656062151722
20
-5.8333412402472238
42
0.41421356237306522
10
-226.0725765694138
20
-6.2184591952319055
10
-213.35665775975298
20
-3.5156072151724032
42
0.41421356237314855
10
-212.97153980476827
20
-2.9225775694138667
10
-215.67439178482789
20
9.7933412402469209
42
0.41421356237310164
10
-216.2674214305863
20
10.178459195231607
10
-228.98334024024703
20
7.4756072151721034
42
0.41421356237303658
10
-229.36845819523168
20
6.8825775694136029
0
LWPOLYLINE
5
169
100
AcDbEntity
8
0
100
AcDbPolyline
90
8
70
1
43
0.0
10
-165.40447121517246
20
26.658811759752865
42
0.41421356237315365
10
-164.81144156941389
20
26.273693804768211
10
-152.09552275975295
20
28.976545784827671
42
0.41421356237312007
10
-151.71040480476825
20
29.569575430586148
10
-154.41325678482787
20
42.285494240247061
42
0.4142135623731939
10
-155.0062864305865
20
42.670612195231719
10
-167.72220524024729
20
39.967760215172177
42
0.41421356237306922
10
-168.10732319523197
20
39.374730569413686
0
SPLINE
5
170
100
AcDbEntity
8
0
100
AcDbSpline
70
6
71
3
72
14
73
10
74
0
42
0.000000001
43
0.0000000001
44
0.0000000001
40
0
40
0
40
0
40
0
40
1
40
1
40
2
40
2
40
3
40
3
40
4
40
4
40
4
40
4
41
1
41
1
41
1
41
1
41
1
41
1
41
1
41
1
41
1
41
1
10
-197.39348241899663
20
101.12531798610144
30
0
10
-197.39348241903897
20
100.15881967389839
30
0
10
-198.17698410687109
20
99.3753179861381
30
0
10
-200.10998073128121
20
99.375317986224104
30
0
10
-200.89348241903883
20
100.1588196740562
30
0
10
-200.89348241895414
20
102.09181629846297
30
0
10
-200.10998073112262
20
102.87531798622317
30
0
10
-198.17698410671582
20
102.87531798613733
30
0
10
-197.39348241895419
20
102.09181629830512
30
0
10
-197.39348241899663
20
101.12531798610144
30
0
0
LWPOLYLINE
5
171
100
AcDbEntity
8
0
100
AcDbPolyline
90
8
70
1
43
0.0
10
-139.9225765686773
20
101.49845919567235
42
0.41421356237304202
10
-140.51560621447027
20
101.11334124074099
10
-143.21845819567241
20
88.397422431322909
42
0.41421356237309293
10
-142.83334024074102
20
87.804392785529828
10
-127.80244243132289
20
84.609475804327715
42
0.41421356237314161
10
-127.20941278552979
20
84.994593759259118
10
-124.50656080432768
20
97.710512568677089
42
0.41421356237311752
10
-124.89167875925912
20
98.303542214470212
0
LWPOLYLINE
5
172
100
AcDbEntity
8
0
100
AcDbPolyline
90
8
70
1
43
0.0
10
-30.895058360150781
20
68.293760574612492
42
0.41193380634351773
10
-31.391163478117896
20
68.793745404276308
10
-37.395058360150728
20
68.793745404276379
42
0.41421356237308204
10
-37.895058360150756
20
68.293745404276379
10
-37.895058360150891
20
53.293745404276351
42
0.4142135623730977
10
-37.395058360150884
20
52.793745404276322
10
-31.395058360150891
20
52.793745404276308
42
0.41421356237310542
10
-30.895058360150855
20
53.293745404276279
0
SPLINE
5
173
100
AcDbEntity
8
0
100
AcDbSpline
70
6
71
3
72
14
73
10
74
0
42
0.000000001
43
0.0000000001
44
0.0000000001
40
0
40
0
40
0
40
0
40
1
40
1
40
2
40
2
40
3
40
3
40
4
40
4
40
4
40
4
41
1
41
1
41
1
41
1
41
1
41
1
41
1
41
1
41
1
41
1
10
-189.20304834017577
20
-4.9223249696514904
30
0
10
-189.2030483402182
20
-5.8888232818564878
30
0
10
-189.98655002805009
20
-6.6723249696165077
30
0
10
-191.91954665245709
20
-6.6723249695294795
30
0
10
-192.70304834021852
20
-5.8888232816984942
30
0
10
-192.7030483401299
20
-3.9558266572904888
30
0
10
-191.91954665229844
20
-3.1723249695294742
30
0
10
-189.98655002789121
20
-3.1723249696165068
30
0
10
-189.20304834013024
20
-3.9558266574474699
30
0
10
-189.20304834017577
20
-4.9223249696514904
30
0
0
ARC
5
174
100
AcDbEntity
8
0
100
AcDbCircle
10
-118.85453887096476
20
80.663543955432715
30
9.6937835079156321e-47
40
0.50000000000305267
210
-1.0888408700939789e-35
220
1.1436659495145261e-35
230
1
100
AcDbArc
50
249.84403793531786
51
257.99999999740271
0
LINE
5
175
100
AcDbEntity
8
0
100
AcDbLine
10
-119.02682725336587
20
80.194164883367648
30
3.4921822994454652e-36
11
-121.2499076500803
21
80.666695208912657
31
0
0
ARC
5
176
100
AcDbEntity
8
0
100
AcDbCircle
10
-121.14595180465004
20
81.155769009275005
30
2.3119414742297492e-48
40
0.49999999999617994
210
-3.7676875085131229e-34
220
8.0084670252454712e-35
230
1
100
AcDbArc
50
167.99999999676081
51
257.99999999749463
0
LINE
5
177
100
AcDbEntity
8
0
100
AcDbLine
10
-121.63502560500733
20
81.25972485471074
30
-1.9259299443725363e-34
11
-118.51635024208454
21
95.931938865568327
31
0
0
ARC
5
178
100
AcDbEntity
8
0
100
AcDbCircle
10
-118.02727644172509
20
95.827983020139726
30
-2.9901555194156439e-49
40
0.50000000000001066
210
-7.5854279359665368e-34
220
1.3662129355810191e-34
230
1
100
AcDbArc
50
77.999999997506791
51
167.99999999761195
0
LINE
5
179
100
AcDbEntity
8
0
100
AcDbLine
10
-117.92332059629493
20
96.317056820502117
30
1.2037062152420153e-35
11
-112.05443499195324
21
95.069586675347267
31
0
0
ARC
5
180
100
AcDbEntity
8
0
100
AcDbCircle
10
-112.15839083738366
20
94.580512874983214
30
-1.7619867255694038e-46
40
0.50000000000169642
210
-3.4615949331188194e-34
220
1.1961989827774023e-34
230
1
100
AcDbArc
50
69.844037927288582
51
77.999999997517719
0
LINE
5
181
100
AcDbEntity
8
0
100
AcDbLine
10
-111.98610245491724
20
95.049891947022871
30
3.4921823268376906e-36
11
-110.19642599591961
21
94.669484472312519
31
0
0
LINE
5
182
100
AcDbEntity
8
0
100
AcDbLine
10
-110.19642599591961
20
94.669484472312519
30
0
11
-110.19560621448343
21
94.673341240739362
31
0
0
ARC
5
183
100
AcDbEntity
8
0
100
AcDbCircle
10
-109.70653241412124
20
94.569385395308544
30
-1.2481811196130554e-47
40
0.49999999999995359
210
7.585427935965224e-34
220
-1.3662129355931724e-34
230
1
100
AcDbArc
50
77.999999997418882
51
167.9999999974288
0
LINE
5
184
100
AcDbEntity
8
0
100
AcDbLine
10
-109.60257656869034
20
95.058459195670721
30
-1.2037062152406469e-35
11
-96.886657759272339
21
92.355607214468733
31
0
0
ARC
5
185
100
AcDbEntity
8
0
100
AcDbCircle
10
-96.990613604703029
20
91.866533414107437
30
-1.4725597170252952e-46
40
0.49999999999904182
210
3.9622222587946694e-35
220
6.1791023935114878e-35
230
1
100
AcDbArc
50
70.21177747594686
51
77.999999997421767
0
LINE
5
186
100
AcDbEntity
8
0
100
AcDbLine
10
-96.821341349876207
20
92.337008603405323
30
-3.5778086641642849e-35
11
-94.595216759259245
21
91.863831214470224
31
0
0
ARC
5
187
100
AcDbEntity
8
0
100
AcDbCircle
10
-94.699172604690091
20
91.374757414108018
30
-2.0580288267709906e-48
40
0.49999999999997874
210
3.3955718159303166e-35
220
1.6505325804005492e-34
230
1
100
AcDbArc
50
-11.343785266824659
51
77.999999997425931
0
LINE
5
188
100
AcDbEntity
8
0
100
AcDbLine
10
-94.208940289313205
20
91.276409679206822
30
0
11
-88.773362075926343
21
90.121041863229635
31
0
0
ARC
5
189
100
AcDbEntity
8
0
100
AcDbCircle
10
-88.877317921363371
20
89.631968062868239
30
2.5828929967153456e-46
40
0.50000000000142419
210
3.7416853579799628e-35
220
8.7806997610268426e-35
230
1
100
AcDbArc
50
69.844037930534341
51
77.99999999671374
0
LINE
5
190
100
AcDbEntity
8
0
100
AcDbLine
10
-88.70502953892364
20
90.10134713491739
30
-4.7661256236719762e-35
11
-86.482078082715049
21
89.628844216522026
31
0
0
ARC
5
191
100
AcDbEntity
8
0
100
AcDbCircle
10
-86.586033928145923
20
89.139770416159791
30
3.7485525059043044e-48
40
0.50000000000003575
210
3.8177404274337283e-34
220
-5.6536623315389881e-35
230
1
100
AcDbArc
50
-12.000000002565987
51
77.999999997423416
0
LINE
5
192
100
AcDbEntity
8
0
100
AcDbLine
10
-86.096960127783646
20
89.035814570729002
30
-1.9259299443872324e-34
11
-89.215635490708962
21
74.363600559861226
31
0
0
ARC
5
193
100
AcDbEntity
8
0
100
AcDbCircle
10
-89.704709291071168
20
74.467556405292015
30
1.0664331193267861e-47
40
0.49999999999997369
210
-5.0052918902302421e-36
220
-2.3548046928344473e-35
230
1
100
AcDbArc
50
257.99999999742749
51
347.99999999743227
0
LINE
5
194
100
AcDbEntity
8
0
100
AcDbLine
10
-89.808665136502
20
73.978482604929809
30
-1.20370621524194e-35
11
-95.676909280145225
21
75.225816403418918
31
0
0
ARC
5
195
100
AcDbEntity
8
0
100
AcDbCircle
10
-95.573594984833136
20
75.715026129797195
30
-1.0825899819992934e-45
40
0.49999999999894412
210
-3.724818534939681e-34
220
1.2873946036325432e-34
230
1
100
AcDbArc
50
249.84369055890531
51
258.07514816841007
0
LINE
5
196
100
AcDbEntity
8
0
100
AcDbLine
10
-95.745886213010266
20
75.245648102305324
30
-3.7478820475828389e-36
11
-97.968213567516145
21
75.718018363790065
31
0
0
ARC
5
197
100
AcDbEntity
8
0
100
AcDbCircle
10
-97.864878972482586
20
76.207223802710388
30
-6.8823691284874038e-49
40
0.49999999999999817
210
2.0182931479782492e-35
220
9.4659099873130327e-35
230
1
100
AcDbArc
50
167.99999999711042
51
258.07277067387736
0
LINE
5
198
100
AcDbEntity
8
0
100
AcDbLine
10
-98.353952772844252
20
76.311179648143934
30
3.0576245966244449e-38
11
-97.939319898743861
21
78.261873951579091
31
0
0
LINE
5
199
100
AcDbEntity
8
0
100
AcDbLine
10
-97.939319898743861
20
78.261873951579091
30
0
11
-110.22189924074083
21
80.872616785529928
31
0
0
ARC
5
200
100
AcDbEntity
8
0
100
AcDbCircle
10
-110.11794339530962
20
81.361690585893243
30
5.4631227150387289e-46
40
0.50000000000127498
210
3.7232389476902434e-34
220
-1.038343563558346e-34
230
1
100
AcDbArc
50
250.21177747607194
51
257.99999999741254
0
LINE
5
201
100
AcDbEntity
8
0
100
AcDbLine
10
-110.28721565013618
20
80.891215396592884
30
1.417261673151212e-35
11
-112.07993630309686
21
81.272269934705207
31
0
0
LINE
5
202
100
AcDbEntity
8
0
100
AcDbLine
10
-112.07993630309686
20
81.272269934705207
30
0
11
-112.49657955567142
21
79.312117544164835
31
0
0
ARC
5
203
100
AcDbEntity
8
0
100
AcDbCircle
10
-112.98565335603365
20
79.416073389595724
30
-2.3199597683600258e-47
40
0.50000000000001377
210
-7.5863031735220502e-34
220
1.3612338305267874e-34
230
1
100
AcDbArc
50
257.92485182644674
51
347.99999999742181
0
LINE
5
204
100
AcDbEntity
8
0
100
AcDbLine
10
-113.09025057275299
20
78.927136356579624
30
-1.279485668008159e-35
11
-118.95849471639644
21
80.174470155067539
31
-2.4074124304839344e-35
0
SPLINE
5
205
100
AcDbEntity
8
0
100
AcDbSpline
70
6
71
3
72
14
73
10
74
0
42
0.000000001
43
0.0000000001
44
0.0000000001
40
0
40
0
40
0
40
0
40
1
40
1
40
2
40
2
40
3
40
3
40
4
40
4
40
4
40
4
41
1
41
1
41
1
41
1
41
1
41
1
41
1
41
1
41
1
41
1
10
-301.0287500043591
20
-12.780001000381471
30
0
10
-301.02875000440605
20
-13.746499312587481
30
0
10
-301.81225169223404
20
-14.530001000346481
30
0
10
-303.74524831664405
20
-14.530001000260473
30
0
10
-304.52875000440207
20
-13.74649931243049
30
0
10
-304.52875000431703
20
-11.813502688020465
30
0
10
-303.745248316485
20
-11.030001000261471
30
0
10
-301.81225169207897
20
-11.030001000346488
30
0
10
-301.02875000431709
20
-11.813502688178481
30
0
10
-301.0287500043591
20
-12.780001000381471
30
0
0
SPLINE
5
206
100
AcDbEntity
8
0
100
AcDbSpline
70
4
71
3
72
11
73
7
74
0
42
0.000000001
43
0.0000000001
44
0.0000000001
40
5
40
5
40
5
40
5
40
6.0001236858209346
40
6.0001236858209346
40
6.0001236858209346
40
7
40
7
40
7
40
7
41
1
41
1
41
1
41
1
41
1
41
1
41
1
10
-273.55383894740208
20
73.743564913477059
30
0
10
-273.87461700787009
20
74.063998421785428
30
0
10
-274.03477427714301
20
74.46094850219464
30
0
10
-274.03477427714301
20
74.925232664917715
30
0
10
-274.03477427714301
20
75.389057651846144
30
0
10
-273.87453766628801
20
75.777587893485915
30
0
10
-273.55383894740203
20
76.089674938932262
30
0
0
SPLINE
5
207
100
AcDbEntity
8
0
100
AcDbSpline
70
4
71
3
72
8
73
4
74
0
42
0.000000001
43
0.0000000001
44
0.0000000001
40
7
40
7
40
7
40
7
40
8
40
8
40
8
40
8
41
1
41
1
41
1
41
1
10
-273.55383894740203
20
76.089674938932262
30
0
10
-273.23310055772504
20
76.402145099444311
30
0
10
-272.84483829653703
20
76.562342039508522
30
0
10
-272.38043942512604
20
76.562342039508536
30
0
0
LINE
5
208
100
AcDbEntity
8
0
100
AcDbLine
10
-272.38043942512604
20
76.562342039508536
30
0
11
-272.38043942512604
21
76.554073810343951
31
0
0
SPLINE
5
209
100
AcDbEntity
8
0
100
AcDbSpline
70
4
71
3
72
12
73
8
74
0
42
0.000000001
43
0.0000000001
44
0.0000000001
40
0
40
0
40
0
40
0
40
1
40
1
40
2
40
2
40
3
40
3
40
3
40
3
41
1
41
1
41
1
41
1
41
1
41
1
41
1
41
1
10
-272.38043942512604
20
76.554073810343951
30
0
10
-271.91638506326308
20
76.554073810343937
30
0
10
-271.52812280207507
20
76.393532360731228
30
0
10
-270.8866460227211
20
75.769281058803926
30
0
10
-270.72610457310901
20
75.380674288067851
30
0
10
-270.72610457310901
20
74.452565564341441
30
0
10
-270.88664602272104
20
74.063958793605337
30
0
10
-271.20738441239791
20
73.743564913477059
30
0
0
SPLINE
5
210
100
AcDbEntity
8
0
100
AcDbSpline
70
4
71
3
72
11
73
7
74
0
42
0.000000001
43
0.0000000001
44
0.0000000001
40
3
40
3
40
3
40
3
40
3.9998763141565403
40
3.9998763141565403
40
3.9998763141565403
40
5
40
5
40
5
40
5
41
1
41
1
41
1
41
1
41
1
41
1
41
1
10
-271.20738441239791
20
73.743564913477059
30
0
10
-271.52808313127679
20
73.42252172766095
30
0
10
-271.91627026935271
20
73.262285074187631
30
0
10
-272.38043942512604
20
73.262285074187631
30
0
10
-272.84506809743357
20
73.262285074187616
30
0
10
-273.23306088692675
20
73.422442300842548
30
0
10
-273.55383894740208
20
73.743564913477059
30
0
0
LWPOLYLINE
5
211
100
AcDbEntity
8
0
100
AcDbPolyline
90
8
70
1
43
0.0
10
-303.34196031736525
20
46.2388350646455
10
-303.34196031736525
20
31.238835061024979
42
-0.41424881002792757
10
-303.84202048812591
20
30.738835064645595
10
-309.84196031736531
20
30.73883506464599
42
-0.41421356237310281
10
-310.34196031736531
20
31.238835064646011
10
-310.34196031736519
20
46.238835064645684
42
-0.41421356237302742
10
-309.84196031736525
20
46.738835064645691
10
-303.84196031736519
20
46.738835064645492
42
-0.41421356237311063
0
LWPOLYLINE
5
212
100
AcDbEntity
8
0
100
AcDbPolyline
90
8
70
1
43
0.0
10
-191.71591724024725
20
15.397042215172227
42
0.41421356237306095
10
-192.10103519523184
20
14.804012569413722
10
-189.39818321517225
20
2.0880937597527307
42
0.41421356237307416
10
-188.80515356941379
20
1.7029758047680632
10
-176.08923475975288
20
4.4058277848277623
42
0.41421356237301121
10
-175.70411680476832
20
4.9988574305862565
10
-178.40696878482777
20
17.714776240247133
42
0.41421356237310458
10
-178.99999843058629
20
18.099894195231819
0
LWPOLYLINE
5
213
100
AcDbEntity
8
0
100
AcDbPolyline
90
8
70
1
43
0.0
10
-208.24962924024703
20
70.306324215172239
42
0.41421356237317791
10
-208.63474719523174
20
69.713294569413705
10
-205.93189521517215
20
56.997375759752927
42
0.41421356237319712
10
-205.33886556941351
20
56.612257804768298
10
-192.62294675975281
20
59.315109784827669
42
0.41421356237302737
10
-192.23782880476821
20
59.908139430586246
10
-194.94068078482766
20
72.624058240247138
42
0.41421356237316515
10
-195.53371043058627
20
73.009176195231817
0
LWPOLYLINE
5
214
100
AcDbEntity
8
0
100
AcDbPolyline
90
8
70
1
43
0.0
10
-116.1500005686772
20
76.969894195672296
42
0.41421356237311036
10
-116.74303021447032
20
76.584776240740908
10
-119.44588219567237
20
63.868857431322851
42
0.41421356237309909
10
-119.06076424074099
20
63.275827785529771
10
-106.34484543132288
20
60.572975804327697
42
0.4142135623730881
10
-105.7518157855298
20
60.958093759259064
10
-103.04896380432768
20
73.674012568677142
42
0.41421356237312368
10
-103.43408175925914
20
74.267042214470251
0
LWPOLYLINE
5
215
100
AcDbEntity
8
0
100
AcDbPolyline
90
8
70
1
43
0.0
10
-204.98962924024704
20
32.046324215172334
42
0.41421356237319551
10
-205.37474719523198
20
31.453294569413714
10
-202.67189521517238
20
18.737375759752954
42
0.41421356237313028
10
-202.07886556941386
20
18.3522578047683
10
-189.3629467597529
20
21.055109784827795
42
0.41421356237315227
10
-188.97782880476814
20
21.648139430586255
10
-191.6806807848277
20
34.364058240247161
42
0.41421356237312246
10
-192.27371043058622
20
34.749176195231833
0
LWPOLYLINE
5
216
100
AcDbEntity
8
0
100
AcDbPolyline
90
8
70
1
43
0.0
10
-194.97591724024718
20
53.657042215172282
42
0.41421356237308082
10
-195.36103519523181
20
53.064012569413848
10
-192.6581832151723
20
40.348093759752821
42
0.41421356237311835
10
-192.06515356941389
20
39.962975804768213
10
-179.3492347597529
20
42.665827784827783
42
0.41421356237309681
10
-178.9641168047682
20
43.258857430586218
10
-181.66696878482776
20
55.974776240247181
42
0.41421356237318369
10
-182.25999843058628
20
56.359894195231924
0
LWPOLYLINE
5
217
100
AcDbEntity
8
0
100
AcDbPolyline
90
8
70
1
43
0.0
10
-304.80999900000006
20
14.690000000000056
42
0.41421356237311718
10
-304.309999
20
14.189999999999976
10
-291.30999900000006
20
14.190000000000019
42
0.4142135623730287
10
-290.80999900000006
20
14.690000000000074
10
-290.80999900000018
20
27.689999999999884
42
0.41421356237293117
10
-291.309999
20
28.18999999999988
10
-304.30999899999995
20
28.189999999999912
42
0.4142135623731002
10
-304.809999
20
27.68999999999993
0
LWPOLYLINE
5
218
100
AcDbEntity
8
0
100
AcDbPolyline
90
8
70
1
43
0.0
10
-218.93439278482785
20
48.053341240247207
42
0.41421356237321127
10
-219.52742243058651
20
48.438459195231836
10
-232.24334124024745
20
45.735607215172315
42
0.41421356237306167
10
-232.62845919523201
20
45.142577569413866
10
-229.92560721517242
20
32.426658759752925
42
0.41421356237303941
10
-229.33257756941404
20
32.041540804768246
10
-216.61665875975305
20
34.744392784827745
42
0.41421356237305434
10
-216.23154080476849
20
35.337422430586301
0
LWPOLYLINE
5
219
100
AcDbEntity
8
0
100
AcDbPolyline
90
8
70
1
43
0.0
10
-286.53053968263498
20
31.238835061024783
42
0.41424881002789632
10
-286.03047951187432
20
30.738835064645414
10
-280.03053968263515
20
30.738835064645684
42
0.4142135623731002
10
-279.53053968263509
20
31.238835064645659
10
-279.5305396826347
20
46.238835064645315
42
0.4142135623731783
10
-280.03053968263481
20
46.73883506464535
10
-286.03053968263464
20
46.738835064645315
42
0.414213562373069
10
-286.5305396826347
20
46.238835064645343
0
LWPOLYLINE
5
220
100
AcDbEntity
8
0
100
AcDbPolyline
90
14
70
1
43
0.0
10
-278.31500000000011
20
52.289999999999793
42
0.41421356237312629
10
-277.815
20
52.789999999999885
10
-277.81500000000011
20
65.789999999999921
42
0.4142135623730534
10
-278.31500000000005
20
66.289999999999822
10
-278.93496701930451
20
66.289999999999822
10
-278.93496701930451
20
68.287981583431389
42
0.41421356237305862
10
-279.43496701930457
20
68.787981583431389
10
-285.43518121343868
20
68.787981583431417
42
0.41408809591587409
10
-285.93496701930457
20
68.287981629310522
10
-285.93496701930457
20
66.289999999999822
10
-300.83999999999969
20
66.289999000000151
42
0.41421356237312101
10
-301.33999999999963
20
65.789999000000165
10
-301.3399999999998
20
52.78999899999998
42
0.41421356237315227
10
-300.83999999999975
20
52.289998999999867
0
LWPOLYLINE
5
221
100
AcDbEntity
8
0
100
AcDbPolyline
90
8
70
1
43
0.0
10
-256.98000000000008
20
46.740000000000002
42
0.41421356237313145
10
-257.48000000000008
20
47.240000000000002
10
-270.47999999999996
20
47.239999999999995
42
0.41421356237317308
10
-270.98000000000008
20
46.739999999999988
10
-270.98000000000002
20
33.740000000000066
42
0.41421356237307161
10
-270.48000000000008
20
33.240000000000059
10
-257.48000000000013
20
33.239999999999995
42
0.41421356237301438
10
-256.98000000000025
20
33.739999999999981
0
LWPOLYLINE
5
222
100
AcDbEntity
8
0
100
AcDbPolyline
90
8
70
1
43
0.0
10
-224.56560621517224
20
53.036657759752863
42
0.41421356237313278
10
-223.97257656941383
20
52.651539804768205
10
-211.25665775975295
20
55.354391784827712
42
0.41421356237315071
10
-210.87153980476828
20
55.947421430586303
10
-213.5743917848279
20
68.663340240247138
42
0.41421356237316509
10
-214.16742143058644
20
69.048458195231845
10
-226.88334024024726
20
66.345606215172182
42
0.41421356237295331
10
-227.2684581952318
20
65.752576569413719
0
LWPOLYLINE
5
223
100
AcDbEntity
8
0
100
AcDbPolyline
90
8
70
1
43
0.0
10
-16.029999000000046
20
52.289999000000194
42
0.41421356237307683
10
-15.529999000000053
20
52.789999000000179
10
-15.529998999999989
20
65.789999000000108
42
0.4142135623731002
10
-16.029998999999986
20
66.289999000000137
10
-29.029999000000014
20
66.289999000000094
42
0.41421356237307422
10
-29.529998999999982
20
65.789999000000023
10
-29.529999000000011
20
52.789999000000037
42
0.4142135623730977
10
-29.029998999999993
20
52.289999000000044
0
LWPOLYLINE
5
224
100
AcDbEntity
8
0
100
AcDbPolyline
90
8
70
1
43
0.0
10
-267.29999900000018
20
-4.3600000000000225
42
0.41421356237310775
10
-266.79999899999996
20
-4.8600000000001931
10
-253.79999900000004
20
-4.8600000000001025
42
0.41421356237307
10
-253.29999899999987
20
-4.3600000000001362
10
-253.29999899999987
20
8.6399999999998265
42
0.41421356237313273
10
-253.79999899999976
20
9.1399999999998229
10
-266.79999899999996
20
9.1399999999997679
42
0.41421356237315937
10
-267.29999900000001
20
8.6400000000000343
0
LWPOLYLINE
5
225
100
AcDbEntity
8
0
100
AcDbPolyline
90
8
70
1
43
0.0
10
-248.43999900000026
20
14.189998999999903
42
0.41421356237308327
10
-247.93999900000017
20
14.689998999999943
10
-247.93999900000034
20
27.689999000000036
42
0.41421356237308204
10
-248.43999900000017
20
28.189998999999823
10
-261.43999899999994
20
28.189998999999972
42
0.414213562373134
10
-261.93999900000006
20
27.68999899999999
10
-261.93999900000017
20
14.689998999999947
42
0.41421356237308465
10
-261.43999900000017
20
14.189998999999936
0
LWPOLYLINE
5
226
100
AcDbEntity
8
0
100
AcDbPolyline
90
8
70
1
43
0.0
10
-229.37560621517224
20
73.026658759752777
42
0.41421356237312773
10
-228.78257656941378
20
72.641540804768127
10
-216.06665775975296
20
75.344392784827633
42
0.4142135623731521
10
-215.68153980476831
20
75.937422430586096
10
-218.38439178482793
20
88.65334124024713
42
0.41421356237305462
10
-218.97742143058622
20
89.038459195231866
10
-231.69334024024718
20
86.33560721517226
42
0.41421356237303186
10
-232.0784581952318
20
85.742577569413783
0
LWPOLYLINE
5
227
100
AcDbEntity
8
0
100
AcDbPolyline
90
8
70
1
43
0.0
10
-211.29189521517222
20
36.387375759752814
42
0.41421356237306856
10
-210.69886556941381
20
36.00225780476827
10
-197.98294675975299
20
38.705109784827783
42
0.41421356237316709
10
-197.59782880476843
20
39.298139430586346
10
-200.30068078482799
20
52.014058240247238
42
0.41421356237309548
10
-200.8937104305864
20
52.39917619523191
10
-213.6096292402471
20
49.696324215172353
42
0.4142135623730524
10
-213.99474719523172
20
49.103294569413706
0
LWPOLYLINE
5
228
100
AcDbEntity
8
0
100
AcDbPolyline
90
8
70
1
43
0.0
10
-208.03189521517226
20
-1.8726242402471547
42
0.41421356237313262
10
-207.43886556941376
20
-2.2577421952318542
10
-194.72294675975286
20
0.4451097848276705
42
0.41421356237307982
10
-194.33782880476815
20
1.0381394305861535
10
-197.04068078482771
20
13.754058240246911
42
0.41421356237311385
10
-197.63371043058623
20
14.139176195231595
10
-210.34962924024714
20
11.436324215172064
42
0.41421356237302404
10
-210.73474719523176
20
10.843294569413704
0
LWPOLYLINE
5
229
100
AcDbEntity
8
0
100
AcDbPolyline
90
8
70
1
43
0.0
10
-248.16999900000002
20
7.000000000000032
42
0.41421356237306967
10
-248.66999900000013
20
6.4999999999999689
10
-248.66999900000008
20
-6.4999999999999538
42
0.41421356237301377
10
-248.16999900000013
20
-6.9999999999999618
10
-235.16999900000016
20
-6.999999999999984
42
0.41421356237304952
10
-234.66999900000016
20
-6.4999999999999813
10
-234.66999900000005
20
6.5000000000000258
42
0.41421356237313212
10
-235.16999900000005
20
7.0000000000000417
0
LWPOLYLINE
5
230
100
AcDbEntity
8
0
100
AcDbPolyline
90
8
70
1
43
0.0
10
-173.39377868927306
20
80.841558024337289
42
0.41461938915546009
10
-172.8000715901988
20
80.456584557039292
10
-166.93186353881549
20
81.703910683328687
42
0.41421356237306234
10
-166.54674558383095
20
82.296940329087221
10
-169.665420945438
20
96.969154340235775
42
0.41421356237307255
10
-170.25845059119658
20
97.354272295220255
10
-176.12733619565529
20
96.106802150577579
42
0.41421356237318296
10
-176.51245415064005
20
95.513772504819073
0
LWPOLYLINE
5
231
100
AcDbEntity
8
0
100
AcDbPolyline
90
8
70
1
43
0.0
10
-296.06560000000013
20
71.387998999999681
42
0.4142135623730222
10
-295.56560000000019
20
71.887998999999667
10
-295.56560000000007
20
84.88799899999978
42
0.4142135623731783
10
-296.06560000000007
20
85.387999000000008
10
-309.06560000000007
20
85.387998999999994
42
0.41421356237308465
10
-309.56560000000013
20
84.887998999999979
10
-309.5655999999999
20
71.887998999999638
42
0.41421356237305862
10
-309.06560000000002
20
71.387998999999638
0
LWPOLYLINE
5
232
100
AcDbEntity
8
0
100
AcDbPolyline
90
8
70
1
43
0.0
10
-188.96560621517224
20
80.086657759752853
42
0.41421356237312773
10
-188.3725765694137
20
79.701539804768089
10
-175.65665775975287
20
82.404391784827666
42
0.41421356237305218
10
-175.27153980476822
20
82.997421430586144
10
-177.97439178482779
20
95.713340240247064
42
0.41421356237314721
10
-178.56742143058631
20
96.098458195231558
10
-191.28334024024718
20
93.395606215172094
42
0.41421356237304785
10
-191.66845819523172
20
92.802576569413617
0
LWPOLYLINE
5
233
100
AcDbEntity
8
0
100
AcDbPolyline
90
8
70
1
43
0.0
10
-192.92283316959617
20
92.02563876561868
10
-189.8041577082289
20
77.353424285136953
42
-0.41461938915536972
10
-190.18995331604955
20
76.76025109036091
10
-196.05816136743221
20
75.512924964068816
42
-0.41421356237306789
10
-196.65119101319092
20
75.898042919053552
10
-199.7698663747982
20
90.570256930202163
42
-0.41421356237308704
10
-199.38474841981355
20
91.163286575960583
10
-193.51586281535469
20
92.410756720603359
42
-0.41421356237312335
0
LWPOLYLINE
5
234
100
AcDbEntity
8
0
100
AcDbPolyline
90
8
70
1
43
0.0
10
-246.57000000000008
20
52.789999999999807
42
0.414213562373069
10
-246.07000000000011
20
52.289999999999807
10
-233.07000000000005
20
52.289999999999907
42
0.4142135623730222
10
-232.57000000000016
20
52.789999999999928
10
-232.57000000000011
20
65.789999999999992
42
0.41421356237318868
10
-233.07000000000022
20
66.289999999999935
10
-246.07000000000005
20
66.289999999999949
42
0.41421356237313145
10
-246.57000000000005
20
65.789999999999921
0
LWPOLYLINE
5
235
100
AcDbEntity
8
0
100
AcDbPolyline
90
8
70
1
43
0.0
10
-159.77325678482768
20
21.675494240247165
42
0.4142135623731108
10
-160.36628643058623
20
22.060612195231908
10
-173.08220524024716
20
19.357760215172299
42
0.41421356237305978
10
-173.46732319523181
20
18.76473056941381
10
-170.76447121517231
20
6.0488117597528639
42
0.41421356237307327
10
-170.17144156941384
20
5.6636938047681884
10
-157.45552275975288
20
8.3665457848277178
42
0.41421356237313506
10
-157.07040480476817
20
8.9595754305862272
0
LWPOLYLINE
5
236
100
AcDbEntity
8
0
100
AcDbPolyline
90
8
70
1
43
0.0
10
-170.72923475975287
20
25.01582778482771
42
0.41421356237307161
10
-170.34411680476822
20
25.608857430586159
10
-173.04696878482781
20
38.324776240247083
42
0.41421356237311646
10
-173.63999843058625
20
38.709894195231726
10
-186.35591724024718
20
36.007042215172262
42
0.41421356237314355
10
-186.74103519523183
20
35.414012569413742
10
-184.0381832151723
20
22.698093759752798
42
0.41421356237309714
10
-183.44515356941383
20
22.312975804768129
0
LWPOLYLINE
5
237
100
AcDbEntity
8
0
100
AcDbPolyline
90
8
70
1
43
0.0
10
-187.29818321517229
20
60.95809375975287
42
0.41421356237320117
10
-186.70515356941371
20
60.572975804768078
10
-173.98923475975269
20
63.275827784827769
42
0.41421356237307438
10
-173.60411680476801
20
63.868857430586218
10
-176.30696878482766
20
76.584776240247137
42
0.41421356237313084
10
-176.89999843058621
20
76.96989419523193
10
-189.61591724024709
20
74.267042215172467
42
0.41421356237306345
10
-190.00103519523174
20
73.674012569413961
0
LWPOLYLINE
5
238
100
AcDbEntity
8
0
100
AcDbPolyline
90
8
70
1
43
0.0
10
-176.3422052402471
20
57.617760215172225
42
0.41421356237312562
10
-176.72732319523175
20
57.024730569413684
10
-174.02447121517235
20
44.308811759752793
42
0.41421356237313278
10
-173.43144156941381
20
43.923693804768135
10
-160.7155227597529
20
46.626545784827698
42
0.41421356237305074
10
-160.33040480476819
20
47.219575430586161
10
-163.0332567848279
20
59.935494240247074
42
0.41421356237316981
10
-163.62628643058645
20
60.320612195231703
0
LWPOLYLINE
5
239
100
AcDbEntity
8
0
100
AcDbPolyline
90
8
70
1
43
0.0
10
-29.519998999999977
20
9.1399989999999871
42
0.4142135623730957
10
-30.019998999999977
20
8.6399989999999871
10
-30.019998999999999
20
-4.360001000000028
42
0.4142135623731022
10
-29.519998999999988
20
-4.8600010000000315
10
-16.519999000000006
20
-4.8600010000000076
42
0.41421356237309309
10
-16.019999000000009
20
-4.3600010000000067
10
-16.01999900000002
20
8.639998999999996
42
0.4142135623730937
10
-16.519999000000016
20
9.1399989999999995
0
LWPOLYLINE
5
240
100
AcDbEntity
8
0
100
AcDbPolyline
90
8
70
1
43
0.0
10
1.7299990000000245
20
45.099998999999983
42
0.41421356237309337
10
1.2299990000000292
20
44.59999899999999
10
1.2299990000000061
20
31.599998999999993
42
0.4142135623730952
10
1.7299990000000065
20
31.099998999999997
10
14.729998999999992
20
31.099998999999986
42
0.4142135623730937
10
15.229998999999985
20
31.599998999999983
10
15.229998999999978
20
44.59999899999999
42
0.4142135623730937
10
14.729998999999978
20
45.099998999999997
0
LWPOLYLINE
5
241
100
AcDbEntity
8
0
100
AcDbPolyline
90
8
70
1
43
0.0
10
-134.7837125686772
20
80.930612195672325
42
0.41421356237306234
10
-135.37674221447023
20
80.54549424074095
10
-138.07959419567237
20
67.829575431322951
42
0.41421356237311135
10
-137.69447624074101
20
67.23654578552987
10
-124.97855743132291
20
64.533693804327712
42
0.41421356237312307
10
-124.38552778552976
20
64.918811759259142
10
-121.68267580432767
20
77.634730568677128
42
0.41421356237316148
10
-122.0677937592591
20
78.227760214470237
0
LWPOLYLINE
5
242
100
AcDbEntity
8
0
100
AcDbPolyline
90
8
70
1
43
0.0
10
-129.43371256867724
20
60.320612195672339
42
0.41421356237305612
10
-130.02674221447029
20
59.935494240740951
10
-132.72959419567235
20
47.219575431322866
42
0.41421356237307255
10
-132.34447624074096
20
46.626545785529785
10
-119.62855743132292
20
43.923693804327741
42
0.41421356237314705
10
-119.03552778552978
20
44.308811759259108
10
-116.33267580432769
20
57.024730568677128
42
0.4142135623730801
10
-116.71779375925911
20
57.617760214470266
0
LINE
5
243
100
AcDbEntity
8
0
100
AcDbLine
10
17.009999999530017
20
73.869998985339294
30
0
11
13.759999999529988
21
73.869998985483477
31
0
0
SPLINE
5
244
100
AcDbEntity
8
0
100
AcDbSpline
70
4
71
3
72
8
73
4
74
0
42
0.000000001
43
0.0000000001
44
0.0000000001
40
-1
40
-1
40
-1
40
-1
40
0
40
0
40
0
40
0
41
1
41
1
41
1
41
1
10
13.759999999530002
20
73.869998985483477
30
0
10
13.207715249698992
20
73.86999898551052
30
0
10
12.759999999549994
20
74.317714235698872
30
0
10
12.759999999575005
20
74.869998985529094
30
0
0
LINE
5
245
100
AcDbEntity
8
0
100
AcDbLine
10
12.759999999575005
20
74.869998985529094
30
0
11
12.760000000125977
21
87.119998985529108
31
0
0
SPLINE
5
246
100
AcDbEntity
8
0
100
AcDbSpline
70
4
71
3
72
8
73
4
74
0
42
0.000000001
43
0.0000000001
44
0.0000000001
40
-1
40
-1
40
-1
40
-1
40
0
40
0
40
0
40
0
41
1
41
1
41
1
41
1
10
12.760000000125995
20
87.119998985529108
30
0
10
12.760000000149008
20
87.672283735360764
30
0
10
12.312284750001012
20
88.119998985549003
30
0
10
11.760000000171013
20
88.119998985575393
30
0
0
LINE
5
247
100
AcDbEntity
8
0
100
AcDbLine
10
11.760000000171013
20
88.119998985575393
30
0
11
4.7500000001700116
21
88.119998985889097
31
0
0
SPLINE
5
248
100
AcDbEntity
8
0
100
AcDbSpline
70
4
71
3
72
8
73
4
74
0
42
0.000000001
43
0.0000000001
44
0.0000000001
40
-1
40
-1
40
-1
40
-1
40
0
40
0
40
0
40
0
41
1
41
1
41
1
41
1
10
4.7500000001700045
20
88.119998985889097
30
0
10
4.3055555557260128
20
88.119998985909007
30
0
10
3.9144444446269788
20
88.413332319260206
30
0
10
3.7900000002020007
20
88.83999898593251
30
0
0
LINE
5
249
100
AcDbEntity
8
0
100
AcDbLine
10
3.7900000002020007
20
88.83999898593251
30
0
11
2.8800000003419868
21
91.959998985972163
31
0
0
SPLINE
5
250
100
AcDbEntity
8
0
100
AcDbSpline
70
4
71
3
72
20
73
16
74
0
42
0.000000001
43
0.0000000001
44
0.0000000001
40
-2
40
-2
40
-2
40
-2
40
-1.587222426709628
40
-1.587222426709628
40
-1.587222426709628
40
-1.1403936388929965
40
-1.1403936388929965
40
-1.1403936388929965
40
-0.91996297103156655
40
-0.91996297103156655
40
-0.91996297103156655
40
-0.74909343937592909
40
-0.74909343937592909
40
-0.74909343937592909
40
0
40
0
40
0
40
0
41
1
41
1
41
1
41
1
41
1
41
1
41
1
41
1
41
1
41
1
41
1
41
1
41
1
41
1
41
1
41
1
10
2.8800000003420045
20
91.959998985972163
30
0
10
2.6885045629792947
20
92.616554771326648
30
0
10
2.3815603531733598
20
93.007904239805811
30
0
10
2.0271873739803858
20
93.332043817153817
30
0
10
1.6435811439578463
20
93.682922604669571
30
0
10
1.1797158468058111
20
93.978646877724699
30
0
10
0.43812269875315613
20
94.088569336589401
30
0
10
0.07227815747934184
20
94.142796552205667
30
0
10
-0.39787718772532177
20
94.128951472904618
30
0
10
-0.8399999995659857
20
93.999998986139289
30
0
10
-1.0519748170766219
20
93.938172997709245
30
0
10
-1.2458157643697931
20
93.856547124519366
30
0
10
-1.4228288296342417
20
93.761190001247826
30
0
10
-2.1988555711404256
20
93.343143584497511
30
0
10
-2.6650551393030097
20
92.696952793040225
30
0
10
-2.8799999996569947
20
91.95999898623279
30
0
0
LINE
5
251
100
AcDbEntity
8
0
100
AcDbLine
10
-2.8799999996569947
20
91.959998986232776
30
0
11
-3.7899999997980061
21
88.839998986273301
31
0
0
SPLINE
5
252
100
AcDbEntity
8
0
100
AcDbSpline
70
4
71
3
72
8
73
4
74
0
42
0.000000001
43
0.0000000001
44
0.0000000001
40
-1
40
-1
40
-1
40
-1
40
0
40
0
40
0
40
0
41
1
41
1
41
1
41
1
10
-3.789999999797995
20
88.839998986273301
30
0
10
-3.914444444262013
20
88.413332319611214
30
0
10
-4.3055555553849896
20
88.119998986295926
30
0
10
-4.749999999830008
20
88.11999898631521
30
0
0
LINE
5
253
100
AcDbEntity
8
0
100
AcDbLine
10
-4.749999999830008
20
88.11999898631521
30
0
11
-55.854984128907006
21
88.119998988609879
31
0
0
ARC
5
254
100
AcDbEntity
8
0
100
AcDbCircle
10
-55.854984128685416
20
93.11999898859915
30
-3.7632527118098115e-47
40
4.999999999989253
210
-4.2675740121923978e-45
220
-9.6296497219357773e-35
230
1
100
AcDbArc
50
257.99999999743858
51
269.99999999746075
0
LINE
5
255
100
AcDbEntity
8
0
100
AcDbLine
10
-56.894542582990617
20
88.229260984987107
30
-4.7096093856990846e-34
11
-99.11405154863931
21
97.203294648102712
31
0
0
SPLINE
5
256
100
AcDbEntity
8
0
100
AcDbSpline
70
4
71
3
72
8
73
4
74
0
42
0.000000001
43
0.0000000001
44
0.0000000001
40
-1
40
-1
40
-1
40
-1
40
0
40
0
40
0
40
0
41
1
41
1
41
1
41
1
10
-99.114051548639296
20
97.203294648102712
30
0
10
-99.548783815627388
20
97.295699844041806
30
0
10
-99.87036078125729
20
97.663939712681213
30
0
10
-99.903376827914514
20
98.107156143852009
30
0
0
LINE
5
257
100
AcDbEntity
8
0
100
AcDbLine
10
-99.903376827914499
20
98.107156143851995
30
0
11
-100.14480666908594
21
101.34817629679665
31
0
0
SPLINE
5
258
100
AcDbEntity
8
0
100
AcDbSpline
70
4
71
3
72
20
73
16
74
0
42
0.000000001
43
0.0000000001
44
0.0000000001
40
-2
40
-2
40
-2
40
-2
40
-1.587222426709316
40
-1.587222426709316
40
-1.587222426709316
40
-1.1403936388928237
40
-1.1403936388928237
40
-1.1403936388928237
40
-0.91996297103146929
40
-0.91996297103146929
40
-0.91996297103146929
40
-0.74909343937499029
40
-0.74909343937499029
40
-0.74909343937499029
40
0
40
0
40
0
40
0
41
1
41
1
41
1
41
1
41
1
41
1
41
1
41
1
41
1
41
1
41
1
41
1
41
1
41
1
41
1
41
1
10
-100.14480666908594
20
101.34817629679665
30
0
10
-100.19561184824441
20
102.03019890315515
30
0
10
-100.41448246093327
20
102.47681373644396
30
0
10
-100.69371913270862
20
102.86754837161412
30
0
10
-100.99599084424712
20
103.29051583566299
30
0
10
-101.38823503809317
20
103.67622084207328
30
0
10
-102.09076843230024
20
103.93792711678925
30
0
10
-102.4373439205017
20
104.06703269479168
30
0
10
-102.900103797233
20
104.15124095646001
30
0
10
-103.35937589442311
20
104.11702889228062
30
0
10
-103.57957289937912
20
104.100625992754
30
0
10
-103.78614893020816
20
104.06108563983649
30
0
10
-103.9791196960268
20
104.00461538419086
30
0
10
-104.82510512868137
20
103.75704931659607
30
0
10
-105.41546773778484
20
103.22190768479038
30
0
10
-105.77893684925888
20
102.54574763615926
30
0
0
LINE
5
259
100
AcDbEntity
8
0
100
AcDbLine
10
-105.77893684925888
20
102.54574763615926
30
0
11
-107.31773564140593
21
99.683126760584372
31
0
0
SPLINE
5
260
100
AcDbEntity
8
0
100
AcDbSpline
70
4
71
3
72
8
73
4
74
0
42
0.000000001
43
0.0000000001
44
0.0000000001
40
-1
40
-1
40
-1
40
-1
40
0
40
0
40
0
40
0
41
1
41
1
41
1
41
1
10
-107.3177356414059
20
99.683126760584372
30
0
10
-107.52816966426421
20
99.291657239139099
30
0
10
-107.97172148853308
20
99.086050515351346
30
0
10
-108.40645375552259
20
99.178455711289061
30
0
0
LINE
5
261
100
AcDbEntity
8
0
100
AcDbLine
10
-108.40645375552259
20
99.178455711289061
30
0
11
-150.10044154485297
21
108.04078640005825
31
0
0
ARC
5
262
100
AcDbEntity
8
0
100
AcDbCircle
10
-151.1399999991549
20
103.15004839643612
30
0
40
4.9999999999984412
210
0
220
-0
230
1
100
AcDbArc
50
77.999999997499373
51
101.99999999736835
0
LINE
5
263
100
AcDbEntity
8
0
100
AcDbLine
10
-152.17955845301873
20
108.04078640015136
30
-2.1992806905425889e-34
11
-193.87354624314682
21
99.178455715126418
31
0
0
SPLINE
5
264
100
AcDbEntity
8
0
100
AcDbSpline
70
4
71
3
72
8
73
4
74
0
42
0.000000001
43
0.0000000001
44
0.0000000001
40
-1
40
-1
40
-1
40
-1
40
0
40
0
40
0
40
0
41
1
41
1
41
1
41
1
10
-193.87354624314682
20
99.178455715126418
30
0
10
-194.30827851014266
20
99.086050519227257
30
0
10
-194.75183033439265
20
99.291657243053507
30
0
10
-194.96226435721667
20
99.683126764519287
30
0
0
LINE
5
265
100
AcDbEntity
8
0
100
AcDbLine
10
-194.9622643572167
20
99.683126764519287
30
0
11
-196.50106314910653
21
102.54574764023337
31
0
0
SPLINE
5
266
100
AcDbEntity
8
0
100
AcDbSpline
70
4
71
3
72
20
73
16
74
0
42
0.000000001
43
0.0000000001
44
0.0000000001
40
-2
40
-2
40
-2
40
-2
40
-1.5872224267086836
40
-1.5872224267086836
40
-1.5872224267086836
40
-1.1403936388924776
40
-1.1403936388924776
40
-1.1403936388924776
40
-0.91996297103127633
40
-0.91996297103127633
40
-0.91996297103127633
40
-0.74909343937621853
40
-0.74909343937621853
40
-0.74909343937621853
40
0
40
0
40
0
40
0
41
1
41
1
41
1
41
1
41
1
41
1
41
1
41
1
41
1
41
1
41
1
41
1
41
1
41
1
41
1
41
1
10
-196.50106314910653
20
102.54574764023337
30
0
10
-196.82487957516415
20
103.14814196626065
30
0
10
-197.20648244723725
20
103.46712222025404
30
0
10
-197.62050393418775
20
103.71050028485568
30
0
10
-198.06867924969447
20
103.97395530911949
30
0
10
-198.58389251079331
20
104.16677427904466
30
0
10
-199.33213423356329
20
104.12010878313959
30
0
10
-199.70125866593904
20
104.09708764683648
30
0
10
-200.1582614349764
20
103.98579432296762
30
0
10
-200.56391207304949
20
103.76773725607057
30
0
10
-200.7584003864217
20
103.66319027110541
30
0
10
-200.93103447063038
20
103.54304631998572
30
0
10
-201.08435351498599
20
103.41296989294926
30
0
10
-201.75650547294921
20
102.84271376146256
30
0
10
-202.07816684196933
20
102.11371544870643
30
0
10
-202.13519332938731
20
101.3481763013752
30
0
0
LINE
5
267
100
AcDbEntity
8
0
100
AcDbLine
10
-202.13519332938731
20
101.3481763013752
30
0
11
-202.3766231708496
21
98.107156148453015
31
0
0
SPLINE
5
268
100
AcDbEntity
8
0
100
AcDbSpline
70
4
71
3
72
8
73
4
74
0
42
0.000000001
43
0.0000000001
44
0.0000000001
40
-1
40
-1
40
-1
40
-1
40
0
40
0
40
0
40
0
41
1
41
1
41
1
41
1
10
-202.3766231708496
20
98.107156148453015
30
0
10
-202.40963921754258
20
97.663939717284208
30
0
10
-202.7312161832063
20
97.295699848675469
30
0
10
-203.16594845020603
20
97.203294652775739
30
0
0
LINE
5
269
100
AcDbEntity
8
0
100
AcDbLine
10
-203.16594845020603
20
97.203294652775739
30
0
11
-245.15963517140392
21
88.277260993439057
31
0
0
ARC
5
270
100
AcDbEntity
8
0
100
AcDbCircle
10
-246.19919362526605
20
93.167998997156033
30
6.0939035390102061e-47
40
4.9999999999997868
210
-7.9357983682561237e-34
220
2.8215035011525241e-35
230
1
100
AcDbArc
50
269.99999999734047
51
281.99999999734507
0
LINE
5
271
100
AcDbEntity
8
0
100
AcDbLine
10
-246.19919362549814
20
88.167998997156246
30
1.4107517487349223e-34
11
-298.04274999982704
21
88.16799899948353
31
0
0
SPLINE
5
272
100
AcDbEntity
8
0
100
AcDbSpline
70
4
71
3
72
8
73
4
74
0
42
0.000000001
43
0.0000000001
44
0.0000000001
40
-1
40
-1
40
-1
40
-1
40
0
40
0
40
0
40
0
41
1
41
1
41
1
41
1
10
-298.04274999982704
20
88.16799899948353
30
0
10
-298.487194444274
20
88.167998999503411
30
0
10
-298.87830555537107
20
88.461332332855406
30
0
10
-299.00274999979399
20
88.887998999527639
30
0
0
LINE
5
273
100
AcDbEntity
8
0
100
AcDbLine
10
-299.00274999979399
20
88.887998999527639
30
0
11
-299.89874999965707
21
91.959998999565954
31
-2.1185229388259594e-32
0
SPLINE
5
274
100
AcDbEntity
8
0
100
AcDbSpline
70
4
71
3
72
20
73
16
74
0
42
0.000000001
43
0.0000000001
44
0.0000000001
40
-2
40
-2
40
-2
40
-2
40
-1.5872224267128643
40
-1.5872224267128643
40
-1.5872224267128643
40
-1.140393638894672
40
-1.140393638894672
40
-1.140393638894672
40
-0.91996297103243996
40
-0.91996297103243996
40
-0.91996297103243996
40
-0.74909343937878592
40
-0.74909343937878592
40
-0.74909343937878592
40
0
40
0
40
0
40
0
41
1
41
1
41
1
41
1
41
1
41
1
41
1
41
1
41
1
41
1
41
1
41
1
41
1
41
1
41
1
41
1
10
-299.89874999965707
20
91.959998999565954
30
0
10
-300.09024543701861
20
92.616554784915039
30
0
10
-300.39718964682351
20
93.007904253395012
30
0
10
-300.7515626260149
20
93.332043830742947
30
0
10
-301.13516885604014
20
93.682922618262424
30
0
10
-301.59903415319519
20
93.978646891318661
30
0
10
-302.34062730124765
20
94.088569350183576
30
0
10
-302.70647184252147
20
94.142796565800012
30
0
10
-303.17662718772499
20
94.128951486499176
30
0
10
-303.61874999956507
20
93.999998999733648
30
0
10
-303.83072481707336
20
93.938173011304343
30
0
10
-304.02456576436458
20
93.856547138115744
30
0
10
-304.20157882962735
20
93.761190014845837
30
0
10
-304.97760557113844
20
93.34314359809602
30
0
10
-305.44380513930292
20
92.696952806636673
30
0
10
-305.658749999657
20
91.959998999825331
30
0
0
LINE
5
275
100
AcDbEntity
8
0
100
AcDbLine
10
-305.658749999657
20
91.959998999825316
30
0
11
-306.55474999979504
21
88.887998999866511
31
-3.3222291540679818e-32
0
SPLINE
5
276
100
AcDbEntity
8
0
100
AcDbSpline
70
4
71
3
72
8
73
4
74
0
42
0.000000001
43
0.0000000001
44
0.0000000001
40
-1
40
-1
40
-1
40
-1
40
0
40
0
40
0
40
0
41
1
41
1
41
1
41
1
10
-306.55474999979504
20
88.887998999866511
30
0
10
-306.67919444426013
20
88.461332333204354
30
0
10
-307.07030555538603
20
88.167998999888667
30
0
10
-307.51474999982605
20
88.167998999909102
30
0
0
LINE
5
277
100
AcDbEntity
8
0
100
AcDbLine
10
-307.51474999982605
20
88.167998999909102
30
0
11
-315.37453643745505
21
88.167999000262
31
5.7777898331617076e-33
0
SPLINE
5
278
100
AcDbEntity
8
0
100
AcDbSpline
70
4
71
3
72
10
73
6
74
0
42
0.000000001
43
0.0000000001
44
0.0000000001
40
-0.07885121664087269
40
-0.07885121664087269
40
-0.07885121664087269
40
-0.07885121664087269
40
-0.039425608320521693
40
-0.039425608320521693
40
0
40
0
40
0
40
0
41
1
41
1
41
1
41
1
41
1
41
1
10
-315.37453643745505
20
88.167999000262
30
0
10
-315.50595513185635
20
88.167999000267727
30
0
10
-315.63590157028932
20
88.142130217814497
30
0
10
-315.87853816935507
20
88.041626847766011
30
0
10
-315.98871616866262
20
87.96803283146204
30
0
10
-316.08164321865303
20
87.875105781480144
30
0
0
LINE
5
279
100
AcDbEntity
8
0
100
AcDbLine
10
-316.08164321865308
20
87.875105781480144
30
0
11
-320.49585678122497
21
83.46089221930626
31
0
0
SPLINE
5
280
100
AcDbEntity
8
0
100
AcDbSpline
70
4
71
3
72
10
73
6
74
0
42
0.000000001
43
0.0000000001
44
0.0000000001
40
-0.078851216645631272
40
-0.078851216645631272
40
-0.078851216645631272
40
-0.078851216645631272
40
-0.039425608322727707
40
-0.039425608322727707
40
0
40
0
40
0
40
0
41
1
41
1
41
1
41
1
41
1
41
1
10
-320.49585678122497
20
83.46089221930626
30
0
10
-320.58878383122078
20
83.367965169319248
30
0
10
-320.66237784753753
20
83.257787170011227
30
0
10
-320.7628812176074
20
83.0151505709388
30
0
10
-320.78875000006906
20
82.885204132499723
30
0
10
-320.78875000006906
20
82.753785438090603
30
0
0
LINE
5
281
100
AcDbEntity
8
0
100
AcDbLine
10
-320.78875000006906
20
82.753785438090574
30
0
11
-320.78875000398199
21
-4.3657874371704786
31
0
0
SPLINE
5
282
100
AcDbEntity
8
0
100
AcDbSpline
70
4
71
3
72
10
73
6
74
0
42
0.000000001
43
0.0000000001
44
0.0000000001
40
-0.078851216636463634
40
-0.078851216636463634
40
-0.078851216636463634
40
-0.078851216636463634
40
-0.039425608318221082
40
-0.039425608318221082
40
0
40
0
40
0
40
0
41
1
41
1
41
1
41
1
41
1
41
1
10
-320.78875000398199
20
-4.3657874371704875
30
0
10
-320.78875000398199
20
-4.4972061315642886
30
0
10
-320.76288122152619
20
-4.627152569989077
30
0
10
-320.66237785147848
20
-4.8697891690380413
30
0
10
-320.58878383517811
20
-4.9799671683380176
30
0
10
-320.495856785201
20
-5.0728942183224568
30
0
0
LINE
5
283
100
AcDbEntity
8
0
100
AcDbLine
10
-320.495856785201
20
-5.0728942183224568
30
0
11
-316.08164322302406
21
-9.4871077808934778
31
0
0
SPLINE
5
284
100
AcDbEntity
8
0
100
AcDbSpline
70
4
71
3
72
10
73
6
74
0
42
0.000000001
43
0.0000000001
44
0.0000000001
40
-0.078851216641165942
40
-0.078851216641165942
40
-0.078851216641165942
40
-0.078851216641165942
40
-0.039425608320639308
40
-0.039425608320639308
40
0
40
0
40
0
40
0
41
1
41
1
41
1
41
1
41
1
41
1
10
-316.08164322302406
20
-9.4871077808934778
30
0
10
-315.98871617304235
20
-9.5800348308840633
30
0
10
-315.87853817374173
20
-9.6536288471980569
30
0
10
-315.63590157468457
20
-9.7541322172685074
30
0
10
-315.50595513625319
20
-9.7800009997330228
30
0
10
-315.37453644185109
20
-9.7800009997384674
30
0
0
LINE
5
285
100
AcDbEntity
8
0
100
AcDbLine
10
-315.37453644185109
20
-9.7800009997384691
30
0
11
-307.52875000422603
21
-9.7800010000904791
31
0
0
SPLINE
5
286
100
AcDbEntity
8
0
100
AcDbSpline
70
4
71
3
72
8
73
4
74
0
42
0.000000001
43
0.0000000001
44
0.0000000001
40
-1
40
-1
40
-1
40
-1
40
0
40
0
40
0
40
0
41
1
41
1
41
1
41
1
10
-307.52875000422603
20
-9.7800010000904791
30
0
10
-307.084305559781
20
-9.780001000110472
30
0
10
-306.69319444868415
20
-10.073334333460462
30
0
10
-306.56875000425703
20
-10.500001000134471
30
0
0
LINE
5
287
100
AcDbEntity
8
0
100
AcDbLine
10
-306.56875000425703
20
-10.500001000134471
30
0
11
-305.65875000439803
21
-13.62000100017346
31
0
0
SPLINE
5
288
100
AcDbEntity
8
0
100
AcDbSpline
70
4
71
3
72
20
73
16
74
0
42
0.000000001
43
0.0000000001
44
0.0000000001
40
-2
40
-2
40
-2
40
-2
40
-1.5872224267101698
40
-1.5872224267101698
40
-1.5872224267101698
40
-1.1403936388932809
40
-1.1403936388932809
40
-1.1403936388932809
40
-0.91996297103170976
40
-0.91996297103170976
40
-0.91996297103170976
40
-0.74909343937642403
40
-0.74909343937642403
40
-0.74909343937642403
40
0
40
0
40
0
40
0
41
1
41
1
41
1
41
1
41
1
41
1
41
1
41
1
41
1
41
1
41
1
41
1
41
1
41
1
41
1
41
1
10
-305.65875000439803
20
-13.620001000173465
30
0
10
-305.46725456703513
20
-14.276556785527079
30
0
10
-305.16031035722955
20
-14.667906254006349
30
0
10
-304.80593737803679
20
-14.992045831354366
30
0
10
-304.42233114801388
20
-15.342924618870754
30
0
10
-303.95846585086161
20
-15.638648891926064
30
0
10
-303.2168727028091
20
-15.748571350790691
30
0
10
-302.85102816153534
20
-15.802798566406985
30
0
10
-302.38087281633068
20
-15.788953487105925
30
0
10
-301.93875000449003
20
-15.660001000340467
30
0
10
-301.72677518697969
20
-15.598175011910595
30
0
10
-301.53293423968671
20
-15.516549138720915
30
0
10
-301.35592117442252
20
-15.421192015449705
30
0
10
-300.57989443291495
20
-15.003145598699486
30
0
10
-300.11369486475166
20
-14.356954807241703
30
0
10
-299.89875000439901
20
-13.620001000433476
30
0
0
LINE
5
289
100
AcDbEntity
8
0
100
AcDbLine
10
-299.89875000439901
20
-13.620001000433476
30
0
11
-298.98875000425704
21
-10.500001000473498
31
0
0
SPLINE
5
290
100
AcDbEntity
8
0
100
AcDbSpline
70
4
71
3
72
8
73
4
74
0
42
0.000000001
43
0.0000000001
44
0.0000000001
40
-1
40
-1
40
-1
40
-1
40
0
40
0
40
0
40
0
41
1
41
1
41
1
41
1
10
-298.98875000425704
20
-10.500001000473498
30
0
10
-298.86430555979507
20
-10.073334333812491
30
0
10
-298.47319444867003
20
-9.7800010004964744
30
0
10
-298.02875000422608
20
-9.7800010005174798
30
0
0
LINE
5
291
100
AcDbEntity
8
0
100
AcDbLine
10
-298.02875000422608
20
-9.7800010005174798
30
0
11
-228.23582031451218
21
-9.7800010036504847
31
0
0
LINE
5
292
100
AcDbEntity
8
0
100
AcDbLine
10
-228.23582031451218
20
-9.7800010036504847
30
0
11
-196.22298451602609
21
-2.9754626985194887
31
-3.0814879110195774e-32
0
SPLINE
5
293
100
AcDbEntity
8
0
100
AcDbSpline
70
4
71
3
72
8
73
4
74
0
42
0.000000001
43
0.0000000001
44
0.0000000001
40
-1
40
-1
40
-1
40
-1
40
0
40
0
40
0
40
0
41
1
41
1
41
1
41
1
10
-196.22298451602609
20
-2.9754626985194887
30
0
10
-195.78825224903022
20
-2.8830575026204786
30
0
10
-195.34470042477699
20
-3.0886642264465047
30
0
10
-195.13426640195541
20
-3.4801337479114958
30
0
0
LINE
5
294
100
AcDbEntity
8
0
100
AcDbLine
10
-195.13426640195536
20
-3.4801337479114958
30
0
11
-193.59546761006641
21
-6.3427546236264831
31
0
0
SPLINE
5
295
100
AcDbEntity
8
0
100
AcDbSpline
70
4
71
3
72
20
73
16
74
0
42
0.000000001
43
0.0000000001
44
0.0000000001
40
-2
40
-2
40
-2
40
-2
40
-1.5872224267104162
40
-1.5872224267104162
40
-1.5872224267104162
40
-1.1403936388932756
40
-1.1403936388932756
40
-1.1403936388932756
40
-0.91996297103170799
40
-0.91996297103170799
40
-0.91996297103170799
40
-0.74909343937410822
40
-0.74909343937410822
40
-0.74909343937410822
40
0
40
0
40
0
40
0
41
1
41
1
41
1
41
1
41
1
41
1
41
1
41
1
41
1
41
1
41
1
41
1
41
1
41
1
41
1
41
1
10
-193.59546761006641
20
-6.3427546236264831
30
0
10
-193.27165118400865
20
-6.9451489496505348
30
0
10
-192.89004831193603
20
-7.2641292036443117
30
0
10
-192.47602682498666
20
-7.5075072682459565
30
0
10
-192.02785150947852
20
-7.7709622925114186
30
0
10
-191.51263824837869
20
-7.9637812624369353
30
0
10
-190.76439652560884
20
-7.9171157665320147
30
0
10
-190.39527209323339
20
-7.8940946302290893
30
0
10
-189.93826932419643
20
-7.7828013063605539
30
0
10
-189.53261868612321
20
-7.5647442394634856
30
0
10
-189.33813037274768
20
-7.4601972544972961
30
0
10
-189.16549628853636
20
-7.340053303375873
30
0
10
-189.01217724417899
20
-7.2099768763372873
30
0
10
-188.3400252862196
20
-6.6397207448516493
30
0
10
-188.01836391720329
20
-5.9107224320965468
30
0
10
-187.96133742978554
20
-5.1451832847694901
30
0
0
LINE
5
296
100
AcDbEntity
8
0
100
AcDbLine
10
-187.96133742978554
20
-5.1451832847694901
30
0
11
-187.71990758832322
21
-1.9041631318464924
31
0
0
SPLINE
5
297
100
AcDbEntity
8
0
100
AcDbSpline
70
4
71
3
72
8
73
4
74
0
42
0.000000001
43
0.0000000001
44
0.0000000001
40
-1
40
-1
40
-1
40
-1
40
0
40
0
40
0
40
0
41
1
41
1
41
1
41
1
10
-187.71990758832322
20
-1.9041631318464924
30
0
10
-187.6868915416261
20
-1.4609467006784982
30
0
10
-187.36531457596266
20
-1.092706832066499
30
0
10
-186.93058230896682
20
-1.0003016361674888
30
0
0
LINE
5
298
100
AcDbEntity
8
0
100
AcDbLine
10
-186.93058230896682
20
-1.0003016361674886
30
0
11
-146.73532788588162
21
7.5434634375677234
31
0
0
ARC
5
299
100
AcDbEntity
8
0
100
AcDbCircle
10
-146.52741619510454
20
6.5653158368069846
30
0
40
1.0000000000178912
210
0
220
-0
230
1
100
AcDbArc
50
77.99999999791919
51
101.99999999739939
0
LINE
5
300
100
AcDbEntity
8
0
100
AcDbLine
10
-146.31950450424753
20
7.5434634375507414
30
0
11
-114.03021465400521
21
0.68016300670050711
31
0
0
SPLINE
5
301
100
AcDbEntity
8
0
100
AcDbSpline
70
4
71
3
72
8
73
4
74
0
42
0.000000001
43
0.0000000001
44
0.0000000001
40
-1
40
-1
40
-1
40
-1
40
0
40
0
40
0
40
0
41
1
41
1
41
1
41
1
10
-114.03021465400521
20
0.68016300670050711
30
0
10
-113.59548238701704
20
0.58775781076148892
30
0
10
-113.27390542138684
20
0.21951794212349052
30
0
10
-113.24088937473051
20
-0.22369848904850276
30
0
0
LINE
5
302
100
AcDbEntity
8
0
100
AcDbLine
10
-113.24088937473053
20
-0.22369848904850273
30
0
11
-112.99945953355984
21
-3.4647186419925102
31
0
0
SPLINE
5
303
100
AcDbEntity
8
0
100
AcDbSpline
70
4
71
3
72
20
73
16
74
0
42
0.000000001
43
0.0000000001
44
0.0000000001
40
-2
40
-2
40
-2
40
-2
40
-1.5872224267104129
40
-1.5872224267104129
40
-1.5872224267104129
40
-1.1403936388933646
40
-1.1403936388933646
40
-1.1403936388933646
40
-0.91996297103172808
40
-0.91996297103172808
40
-0.91996297103172808
40
-0.74909343937711237
40
-0.74909343937711237
40
-0.74909343937711237
40
0
40
0
40
0
40
0
41
1
41
1
41
1
41
1
41
1
41
1
41
1
41
1
41
1
41
1
41
1
41
1
41
1
41
1
41
1
41
1
10
-112.99945953355984
20
-3.4647186419925102
30
0
10
-112.94865435440079
20
-4.1467412483489792
30
0
10
-112.7297837417123
20
-4.5933560816376229
30
0
10
-112.45054706993753
20
-4.9840907168073167
30
0
10
-112.14827535839846
20
-5.4070581808573159
30
0
10
-111.75603116455177
20
-5.7927631872679042
30
0
10
-111.05349777034488
20
-6.054469461983909
30
0
10
-110.70692228214349
20
-6.1835750399863132
30
0
10
-110.24416240541255
20
-6.2677833016547346
30
0
10
-109.78489030822253
20
-6.2335712374754948
30
0
10
-109.56469330326894
20
-6.2171683379489595
30
0
10
-109.35811727244194
20
-6.1776279850321298
30
0
10
-109.16514650662518
20
-6.1211577293876518
30
0
10
-108.31916107396695
20
-5.8735916617944861
30
0
10
-107.72879846486154
20
-5.338450029989172
30
0
10
-107.36532935338651
20
-4.6622899813565022
30
0
0
LINE
5
304
100
AcDbEntity
8
0
100
AcDbLine
10
-107.36532935338651
20
-4.6622899813565013
30
0
11
-105.82653056123853
21
-1.7996691057794933
31
0
0
SPLINE
5
305
100
AcDbEntity
8
0
100
AcDbSpline
70
4
71
2
72
6
73
3
74
0
42
0.000000001
43
0.0000000001
44
0.0000000001
40
-1
40
-1
40
-1
40
0
40
0
40
0
41
1
41
1
41
1
10
-105.82653056123853
20
-1.7996691057794933
30
0
10
-105.61609653838133
20
-1.4081995843324902
30
0
10
-104.73781244712322
20
-1.294998056485519
30
0
0
LINE
5
306
100
AcDbEntity
8
0
100
AcDbLine
10
-104.73781244712322
20
-1.294998056485519
30
0
11
-64.921819532722196
21
-9.7581486117175089
31
0
0
ARC
5
307
100
AcDbEntity
8
0
100
AcDbCircle
10
-64.713907841863701
20
-8.7800010109984363
30
0
40
0.99999999999405798
210
-4.0849349819981624e-49
220
8.6827973460231421e-50
230
1
100
AcDbArc
50
257.99999999754147
51
269.99999999760945
0
LINE
5
308
100
AcDbEntity
8
0
100
AcDbLine
10
-64.713907841905424
20
-9.7800010109924997
30
-2.3548046928401251e-35
11
-4.7500000042260027
21
-9.7800010136845259
31
0
0
SPLINE
5
309
100
AcDbEntity
8
0
100
AcDbSpline
70
4
71
3
72
8
73
4
74
0
42
0.000000001
43
0.0000000001
44
0.0000000001
40
-1
40
-1
40
-1
40
-1
40
0
40
0
40
0
40
0
41
1
41
1
41
1
41
1
10
-4.7500000042260018
20
-9.7800010136845259
30
0
10
-4.3055555597809931
20
-9.7800010137035169
30
0
10
-3.914444448684018
20
-10.073334347054502
30
0
10
-3.7900000042570046
20
-10.500001013726514
30
0
0
LINE
5
310
100
AcDbEntity
8
0
100
AcDbLine
10
-3.7900000042570046
20
-10.500001013726514
30
0
11
-2.8800000043970186
21
-13.620001013767521
31
0
0
SPLINE
5
311
100
AcDbEntity
8
0
100
AcDbSpline
70
4
71
3
72
20
73
16
74
0
42
0.000000001
43
0.0000000001
44
0.0000000001
40
-2
40
-2
40
-2
40
-2
40
-1.5872224267099559
40
-1.5872224267099559
40
-1.5872224267099559
40
-1.1403936388932299
40
-1.1403936388932299
40
-1.1403936388932299
40
-0.91996297103160496
40
-0.91996297103160496
40
-0.91996297103160496
40
-0.74909343937566031
40
-0.74909343937566031
40
-0.74909343937566031
40
0
40
0
40
0
40
0
41
1
41
1
41
1
41
1
41
1
41
1
41
1
41
1
41
1
41
1
41
1
41
1
41
1
41
1
41
1
41
1
10
-2.8800000043970031
20
-13.620001013767521
30
0
10
-2.6885045670348595
20
-14.276556799121041
30
0
10
-2.3815603572292177
20
-14.667906267600141
30
0
10
-2.0271873780365777
20
-14.992045844948123
30
0
10
-1.6435811480140228
20
-15.34292463246417
30
0
10
-1.1797158508619376
20
-15.638648905519489
30
0
10
-0.43812270280952803
20
-15.74857136438446
30
0
10
-0.072278161535594979
20
-15.802798580000967
30
0
10
0.39787718366926739
20
-15.788953500699986
30
0
10
0.83999999551000015
20
-15.660001013934517
30
0
10
1.0519748130209894
20
-15.598175025504606
30
0
10
1.2458157603144715
20
-15.516549152314663
30
0
10
1.4228288255791621
20
-15.421192029043063
30
0
10
2.1988555670847809
20
-15.003145612293164
30
0
10
2.665055135247556
20
-14.356954820835774
30
0
10
2.879999995602982
20
-13.62000101402753
30
0
0
LINE
5
312
100
AcDbEntity
8
0
100
AcDbLine
10
2.879999995602982
20
-13.62000101402753
30
0
11
3.789999995742015
21
-10.5000010140665
31
0
0
SPLINE
5
313
100
AcDbEntity
8
0
100
AcDbSpline
70
4
71
3
72
8
73
4
74
0
42
0.000000001
43
0.0000000001
44
0.0000000001
40
-1
40
-1
40
-1
40
-1
40
0
40
0
40
0
40
0
41
1
41
1
41
1
41
1
10
3.7899999957419972
20
-10.5000010140665
30
0
10
3.9144444402059819
20
-10.073334347406508
30
0
10
4.3055555513310058
20
-9.7800010140915301
30
0
10
4.749999995774008
20
-9.7800010141105105
30
0
0
LINE
5
314
100
AcDbEntity
8
0
100
AcDbLine
10
4.749999995774008
20
-9.7800010141105105
30
0
11
12.595786433400988
21
-9.7800010144625116
31
0
0
SPLINE
5
315
100
AcDbEntity
8
0
100
AcDbSpline
70
4
71
3
72
10
73
6
74
0
42
0.000000001
43
0.0000000001
44
0.0000000001
40
-0.078851216641040361
40
-0.078851216641040361
40
-0.078851216641040361
40
-0.078851216641040361
40
-0.039425608320544987
40
-0.039425608320544987
40
0
40
0
40
0
40
0
41
1
41
1
41
1
41
1
41
1
41
1
10
12.595786433400988
20
-9.7800010144625116
30
0
10
12.727205127802957
20
-9.7800010144689669
30
0
10
12.857151566236809
20
-9.7541322320160901
30
0
10
13.09978816530343
20
-9.6536288619673964
30
0
10
13.209966164611089
20
-9.5800348456630147
30
0
10
13.302893214600999
20
-9.4871077956805134
30
0
0
LINE
5
316
100
AcDbEntity
8
0
100
AcDbLine
10
13.302893214600999
20
-9.4871077956805152
30
0
11
17.717106777173015
21
-5.0728942335065197
31
0
0
SPLINE
5
317
100
AcDbEntity
8
0
100
AcDbSpline
70
4
71
3
72
10
73
6
74
0
42
0.000000001
43
0.0000000001
44
0.0000000001
40
-0.078851216645597882
40
-0.078851216645597882
40
-0.078851216645597882
40
-0.078851216645597882
40
-0.039425608322828945
40
-0.039425608322828945
40
0
40
0
40
0
40
0
41
1
41
1
41
1
41
1
41
1
41
1
10
17.717106777173012
20
-5.0728942335065197
30
0
10
17.810033827168187
20
-4.9799671835193005
30
0
10
17.883627843484689
20
-4.869789184211097
30
0
10
17.984131213554914
20
-4.6271525851384876
30
0
10
18.009999996017001
20
-4.4972061466989599
30
0
10
18.009999996017008
20
-4.3657874522895224
30
0
0
LINE
5
318
100
AcDbEntity
8
0
100
AcDbLine
10
18.009999996017008
20
-4.3657874522895224
30
0
11
18.009999999484982
21
72.869998985293009
31
0
0
SPLINE
5
319
100
AcDbEntity
8
0
100
AcDbSpline
70
4
71
3
72
8
73
4
74
0
42
0.000000001
43
0.0000000001
44
0.0000000001
40
-1
40
-1
40
-1
40
-1
40
0
40
0
40
0
40
0
41
1
41
1
41
1
41
1
10
18.00999999948499
20
72.869998985293009
30
0
10
18.009999999509002
20
73.422283735125205
30
0
10
17.562284749361034
20
73.869998985313487
30
0
10
17.009999999529999
20
73.869998985339294
30
0
0
ENDSEC
0
SECTION
2
OBJECTS
0
DICTIONARY
5
C
100
AcDbDictionary
3
ACAD_GROUP
350
D
3
ACAD_MLINESTYLE
350
17
0
DICTIONARY
5
D
100
AcDbDictionary
0
DICTIONARY
5
1A
330
C
100
AcDbDictionary
0
DICTIONARY
5
17
100
AcDbDictionary
0
ENDSEC
0
EOF
